# This file uses centimeters as units for non-parametric coordinates.

mtllib screen1.mtl
g default
v -0.030208 0.060547 0.583009
v 0.014482 0.060547 0.583009
v -0.030208 0.543065 0.583009
v 0.014482 0.543065 0.583009
v -0.030208 0.543065 -0.583009
v 0.014482 0.543065 -0.583009
v -0.030208 0.060547 -0.583009
v 0.014482 0.060547 -0.583009
v -0.049841 0.041531 -0.612160
v -0.049841 0.041531 0.612160
v -0.049841 0.562080 0.612160
v -0.049841 0.562080 -0.612160
v -0.049841 0.101431 -0.520336
v -0.049841 0.101431 0.520336
v -0.049841 0.502181 0.520336
v -0.049841 0.502181 -0.520336
v -0.021785 0.118403 -0.494319
v -0.021785 0.118403 0.494319
v -0.021785 0.485209 0.494319
v -0.021785 0.485209 -0.494319
v 0.049841 0.142949 -0.456691
v 0.049841 0.142949 0.456691
v 0.049841 0.460663 -0.456691
v 0.049841 0.460663 0.456691
vt 0.536104 0.879075
vt 0.536104 0.566910
vt 0.678121 0.566910
vt 0.678121 0.879075
vt 0.499270 0.922247
vt 0.499270 0.523738
vt 0.714954 0.523738
vt 0.714954 0.922247
vt 0.259490 0.942172
vt 0.259490 0.523738
vt 0.286265 0.555120
vt 0.286265 0.910790
vt 0.492174 0.523738
vt 0.465399 0.555120
vt 0.492174 0.942172
vt 0.465399 0.910790
vt 0.090546 0.533701
vt 0.154713 0.533701
vt 0.154713 0.932209
vt 0.090546 0.932209
vt 0.062357 0.942172
vt 0.062357 0.523738
vt 0.188342 0.533700
vt 0.252509 0.533700
vt 0.252509 0.932209
vt 0.188342 0.932209
vt 0.160153 0.942172
vt 0.160153 0.523738
vt 0.721924 0.879407
vt 0.721924 0.523738
vt 0.762207 0.532630
vt 0.762207 0.870515
vt 0.768167 0.879407
vt 0.768167 0.523738
vt 0.808451 0.532630
vt 0.808451 0.870515
vt 0.842600 0.528245
vt 0.906766 0.528245
vt 0.906766 0.642623
vt 0.842600 0.642623
vt 0.814410 0.647131
vt 0.814410 0.523738
vt 0.873477 0.653498
vt 0.937643 0.653498
vt 0.937643 0.767876
vt 0.873477 0.767876
vt 0.845287 0.772384
vt 0.845287 0.648991
vt 0.799612 0.976262
vt 0.799612 0.881267
vt 0.839896 0.885290
vt 0.839896 0.972239
vt 0.753936 0.976262
vt 0.753936 0.881267
vt 0.794220 0.885290
vt 0.794220 0.972239
vt 0.999276 0.381333
vt 0.003261 0.382696
vt 0.002910 0.126389
vt 0.998925 0.125026
vn 0.000000 0.000000 1.000000
vn 0.000000 0.000000 1.000000
vn 0.000000 0.000000 1.000000
vn 0.000000 0.000000 1.000000
vn 0.345465 0.938432 0.000000
vn 0.000000 1.000000 0.000000
vn 0.000000 1.000000 0.000000
vn 0.345465 0.938432 0.000000
vn 0.000000 0.000000 -1.000000
vn 0.000000 0.000000 -1.000000
vn 0.000000 0.000000 -1.000000
vn 0.000000 0.000000 -1.000000
vn 0.345467 -0.938431 0.000000
vn 0.000000 -1.000000 0.000000
vn 0.000000 -1.000000 0.000000
vn 0.345467 -0.938431 0.000000
vn 1.000000 0.000000 0.000000
vn 1.000000 0.000000 0.000000
vn 1.000000 0.000000 0.000000
vn 1.000000 0.000000 0.000000
vn -0.999489 0.000000 0.031953
vn -0.999489 0.000000 -0.031953
vn -0.999489 0.000000 -0.031953
vn -0.999489 0.000000 0.031953
vn 0.695723 -0.718310 0.000000
vn 0.695723 -0.718310 0.000000
vn 0.829420 0.000000 0.558626
vn 0.829420 0.000000 0.558626
vn 0.829420 0.000000 0.558626
vn 0.829420 0.000000 0.558626
vn 0.695721 0.718312 0.000000
vn 0.695721 0.718312 0.000000
vn 0.829419 0.000000 -0.558627
vn 0.829419 0.000000 -0.558627
vn 0.829419 0.000000 -0.558627
vn 0.829419 0.000000 -0.558627
vn -1.000000 -0.000000 0.000000
vn -1.000000 -0.000000 0.000000
vn -0.998584 -0.000000 -0.053202
vn -0.998584 -0.000000 0.053202
vn -1.000000 0.000000 0.000000
vn -0.998584 0.000000 -0.053202
vn -1.000000 0.000000 0.000000
vn -0.998584 0.000000 0.053202
vn -0.517582 0.855634 0.000000
vn -0.517582 0.855634 0.000000
vn -0.517582 0.855634 0.000000
vn -0.517582 0.855634 0.000000
vn -0.517583 -0.855633 0.000000
vn -0.517583 -0.855633 0.000000
vn -0.517583 -0.855633 0.000000
vn -0.517583 -0.855633 0.000000
vn 0.918967 -0.394334 0.000000
vn 0.918967 -0.394334 0.000000
vn 0.918967 -0.394334 0.000000
vn 0.918967 -0.394334 0.000000
vn 0.962984 0.000000 -0.269559
vn 0.962984 0.000000 -0.269559
vn 0.962984 0.000000 -0.269559
vn 0.962984 0.000000 -0.269559
vn 0.918967 0.394334 0.000000
vn 0.918967 0.394334 0.000000
vn 0.918967 0.394334 0.000000
vn 0.918967 0.394334 0.000000
vn 0.962984 0.000000 0.269559
vn 0.962984 0.000000 0.269559
vn 0.962984 0.000000 0.269559
vn 0.962984 0.000000 0.269559
s off
g pCube3
usemtl initialShadingGroup
f 1/37/1 2/38/2 4/39/3 3/40/4
s 1
f 3/17/5 4/18/6 6/19/7 5/20/8
s off
f 5/43/9 6/44/10 8/45/11 7/46/12
s 2
f 7/23/13 8/24/14 2/25/15 1/26/16
s off
f 22/1/17 21/2/18 23/3/19 24/4/20
s 3
f 17/57/21 18/58/22 19/59/23 20/60/24
s 2
f 7/23/13 1/26/16 10/27/25 9/28/26
s off
f 1/37/27 3/40/28 11/41/29 10/42/30
s 1
f 3/17/5 5/20/8 12/21/31 11/22/32
s off
f 5/43/33 7/46/34 9/47/35 12/48/36
s 3
f 9/9/37 10/10/38 14/11/39 13/12/40
f 10/10/38 11/13/41 15/14/42 14/11/39
f 11/13/41 12/15/43 16/16/44 15/14/42
f 12/15/43 9/9/37 13/12/40 16/16/44
s off
f 13/29/45 14/30/46 18/31/47 17/32/48
s 3
f 14/49/39 15/50/42 19/51/23 18/52/22
s off
f 15/33/49 16/34/50 20/35/51 19/36/52
s 3
f 16/53/44 13/54/40 17/55/21 20/56/24
s off
f 2/5/53 8/6/54 21/2/55 22/1/56
f 8/6/57 6/7/58 23/3/59 21/2/60
f 6/7/61 4/8/62 24/4/63 23/3/64
f 4/8/65 2/5/66 22/1/67 24/4/68
