# This file uses centimeters as units for non-parametric coordinates.

mtllib shovel.mtl
g default
v 0.321111 -0.605652 -0.030606
v 0.294001 -0.619857 -0.043283
v 0.266891 -0.634061 -0.030606
v 0.255662 -0.639945 0.000000
v 0.266891 -0.634061 0.030606
v 0.294001 -0.619857 0.043283
v 0.321111 -0.605652 0.030606
v 0.332340 -0.599769 0.000000
v -0.617303 1.124067 -0.002164
v -0.619220 1.123063 -0.003060
v -0.621137 1.122059 -0.002164
v -0.621930 1.121643 0.000000
v -0.621137 1.122059 0.002164
v -0.619220 1.123063 0.003060
v -0.617303 1.124067 0.002164
v -0.616509 1.124483 0.000000
v 0.294001 -0.619857 0.000000
v -0.619220 1.123063 0.000000
v -0.455814 0.904456 0.000000
v -0.467043 0.898572 0.030606
v -0.494153 0.884367 0.043283
v -0.521263 0.870163 0.030606
v -0.532492 0.864279 0.000000
v -0.521263 0.870163 -0.030606
v -0.494153 0.884367 -0.043283
v -0.467043 0.898572 -0.030606
v 0.254108 -0.450460 0.000000
v 0.242879 -0.456344 0.030606
v 0.215769 -0.470548 0.043283
v 0.188659 -0.484753 0.030606
v 0.177430 -0.490637 0.000000
v 0.188659 -0.484753 -0.030606
v 0.215769 -0.470548 -0.043283
v 0.242879 -0.456344 -0.030606
v 0.307954 -0.752593 0.128023
v 0.320729 -0.745899 0.162844
v 0.351574 -0.729737 0.112340
v 0.351574 -0.729737 0.177268
v 0.382418 -0.713576 0.162844
v 0.395194 -0.706882 0.128023
v 0.381919 -0.716810 -0.158024
v 0.352796 -0.732070 -0.171643
v 0.352796 -0.732070 -0.109462
v 0.323673 -0.747329 -0.158024
v 0.311609 -0.753650 -0.125145
v 0.393983 -0.710489 -0.125145
v 0.449989 -0.846724 -0.158024
v 0.420866 -0.861984 -0.171643
v 0.429866 -0.879162 -0.125145
v 0.391742 -0.877243 -0.158024
v 0.379679 -0.883564 -0.125145
v 0.462053 -0.840404 -0.125145
v 0.378468 -0.887171 0.128023
v 0.391243 -0.880477 0.162844
v 0.431088 -0.881493 0.128023
v 0.422088 -0.864316 0.177268
v 0.452932 -0.848155 0.162844
v 0.465708 -0.841461 0.128023
v 0.326303 -0.602932 -0.036468
v 0.294001 -0.619857 -0.051573
v 0.215769 -0.470548 -0.051573
v 0.248072 -0.453623 -0.036468
v 0.261698 -0.636782 -0.036468
v 0.183467 -0.487474 -0.036468
v 0.248319 -0.643792 0.000000
v 0.170087 -0.494484 0.000000
v 0.261698 -0.636782 0.036468
v 0.183467 -0.487474 0.036468
v 0.294001 -0.619857 0.051573
v 0.215769 -0.470548 0.051573
v 0.326303 -0.602932 0.036468
v 0.248072 -0.453623 0.036468
v 0.339683 -0.595921 0.000000
v 0.261451 -0.446613 0.000000
vt 0.023484 0.562773
vt 0.023484 0.585773
vt 0.006682 0.585773
vt 0.006682 0.562773
vt 0.023484 0.608774
vt 0.006682 0.608774
vt 0.001834 0.655944
vt 0.001834 0.632943
vt 0.018636 0.632943
vt 0.018636 0.655944
vt 0.001834 0.609943
vt 0.018636 0.609943
vt 0.025338 0.658457
vt 0.025338 0.635457
vt 0.042140 0.635457
vt 0.042140 0.658457
vt 0.025338 0.612456
vt 0.042140 0.612456
vt 0.048662 0.658457
vt 0.048662 0.635457
vt 0.065465 0.635457
vt 0.065465 0.658457
vt 0.048662 0.612456
vt 0.065465 0.612456
vt 0.099449 0.341543
vt 0.164622 0.350133
vt 0.099449 0.370870
vt 0.034275 0.350133
vt 0.007279 0.370870
vt 0.030425 0.552506
vt 0.001834 0.530544
vt 0.099449 0.530544
vt 0.099449 0.561603
vt 0.168473 0.552506
vt 0.197063 0.530544
vt 0.191618 0.370870
vt 0.627147 0.476903
vt 0.628924 0.478267
vt 0.622858 0.478267
vt 0.627147 0.479632
vt 0.622858 0.480197
vt 0.618569 0.479632
vt 0.616792 0.478267
vt 0.618569 0.476903
vt 0.622858 0.476337
vt 0.562191 0.458964
vt 0.622858 0.450968
vt 0.537062 0.478267
vt 0.562191 0.497570
vt 0.622858 0.505566
vt 0.683525 0.497570
vt 0.708654 0.478267
vt 0.683525 0.458964
vt 0.410079 0.450968
vt 0.470746 0.450968
vt 0.470746 0.499483
vt 0.410079 0.499483
vt 0.343764 0.454516
vt 0.404431 0.454516
vt 0.404431 0.503030
vt 0.343764 0.503030
vt 0.283097 0.454516
vt 0.283097 0.503030
vt 0.216782 0.562773
vt 0.277449 0.562773
vt 0.277449 0.611287
vt 0.216782 0.611287
vt 0.156114 0.562773
vt 0.156114 0.611287
vt 0.089799 0.611287
vt 0.029132 0.611287
vt 0.029132 0.562773
vt 0.089799 0.562773
vt 0.150466 0.611287
vt 0.150466 0.562773
vt 0.531413 0.450968
vt 0.531413 0.499483
vt 0.239911 0.434044
vt 0.214782 0.453347
vt 0.202963 0.372602
vt 0.231554 0.350640
vt 0.013652 0.449799
vt 0.099449 0.449799
vt 0.099449 0.520653
vt 0.001834 0.530544
vt 0.300578 0.426048
vt 0.300578 0.341543
vt 0.361245 0.434044
vt 0.369602 0.350640
vt 0.386374 0.453347
vt 0.398193 0.372602
vt 0.185245 0.449799
vt 0.197063 0.530544
vt 0.496083 0.368842
vt 0.556750 0.360846
vt 0.561257 0.441210
vt 0.496083 0.449799
vt 0.435416 0.360846
vt 0.430909 0.441210
vt 0.410287 0.341543
vt 0.403914 0.420473
vt 0.007279 0.370870
vt 0.099449 0.380761
vt 0.581879 0.341543
vt 0.588252 0.420473
vt 0.191618 0.370870
vt 0.093517 0.633193
vt 0.093517 0.612456
vt 0.108137 0.612456
vt 0.108137 0.633193
vt 0.093517 0.653930
vt 0.108137 0.653930
vt 0.172728 0.612456
vt 0.172728 0.633193
vt 0.158109 0.633193
vt 0.158109 0.612456
vt 0.194259 0.612456
vt 0.194259 0.633193
vt 0.179639 0.633193
vt 0.179639 0.612456
vt 0.130192 0.612456
vt 0.130192 0.634418
vt 0.115048 0.634418
vt 0.115048 0.612456
vt 0.087132 0.634418
vt 0.087132 0.656380
vt 0.071987 0.656380
vt 0.071987 0.634418
vt 0.087132 0.612456
vt 0.071987 0.612456
vt 0.151723 0.612456
vt 0.151723 0.634418
vt 0.136578 0.634418
vt 0.136578 0.612456
vt 0.635661 0.354768
vt 0.610532 0.374071
vt 0.594098 0.374071
vt 0.624041 0.351070
vt 0.902328 0.440295
vt 0.877199 0.420992
vt 0.888820 0.417295
vt 0.918762 0.440295
vt 0.635661 0.393374
vt 0.624041 0.397071
vt 0.877199 0.459598
vt 0.888820 0.463296
vt 0.696328 0.401369
vt 0.696328 0.406598
vt 0.816532 0.467594
vt 0.816532 0.472823
vt 0.756996 0.393374
vt 0.768616 0.397071
vt 0.755865 0.459598
vt 0.744245 0.463296
vt 0.782125 0.374071
vt 0.798558 0.374071
vt 0.730736 0.440295
vt 0.714302 0.440295
vt 0.756996 0.354768
vt 0.768616 0.351070
vt 0.755865 0.420992
vt 0.744245 0.417295
vt 0.696328 0.346772
vt 0.696328 0.341543
vt 0.816532 0.412996
vt 0.816532 0.407768
vn 0.338972 0.177608 -0.923880
vn 0.338972 0.177608 -0.923880
vn 0.338972 0.177608 -0.923880
vn 0.338972 0.177608 -0.923880
vn -0.338972 -0.177608 -0.923880
vn -0.338972 -0.177608 -0.923880
vn -0.338972 -0.177608 -0.923880
vn -0.338972 -0.177608 -0.923880
vn -0.818351 -0.428783 -0.382683
vn -0.818351 -0.428783 -0.382683
vn -0.818351 -0.428783 -0.382683
vn -0.818351 -0.428783 -0.382683
vn -0.818351 -0.428783 0.382683
vn -0.818351 -0.428783 0.382683
vn -0.818351 -0.428783 0.382683
vn -0.818351 -0.428783 0.382683
vn -0.338972 -0.177608 0.923880
vn -0.338972 -0.177608 0.923880
vn -0.338972 -0.177608 0.923880
vn -0.338972 -0.177608 0.923880
vn 0.338972 0.177608 0.923880
vn 0.338972 0.177608 0.923880
vn 0.338972 0.177608 0.923880
vn 0.338972 0.177608 0.923880
vn 0.818351 0.428783 0.382684
vn 0.818351 0.428783 0.382684
vn 0.818351 0.428783 0.382684
vn 0.818351 0.428783 0.382684
vn 0.818351 0.428783 -0.382684
vn 0.818351 0.428783 -0.382684
vn 0.818351 0.428783 -0.382684
vn 0.818351 0.428783 -0.382684
vn 0.428353 -0.817529 -0.384917
vn 0.669444 -0.691206 -0.272175
vn 0.445158 -0.849603 -0.282858
vn 0.187261 -0.943849 -0.272182
vn 0.428353 -0.817529 -0.384917
vn 0.445158 -0.849603 -0.282858
vn 0.086308 -0.983747 -0.157456
vn 0.187261 -0.943849 -0.272182
vn 0.445158 -0.849603 -0.282858
vn 0.202344 -0.944422 0.259085
vn 0.106069 -0.982972 0.150052
vn 0.447103 -0.853314 0.268243
vn 0.431836 -0.824177 0.366402
vn 0.202344 -0.944422 0.259085
vn 0.447103 -0.853314 0.268243
vn 0.661328 -0.703932 0.259083
vn 0.431836 -0.824177 0.366402
vn 0.447103 -0.853314 0.268243
vn 0.747825 -0.646719 0.150043
vn 0.661328 -0.703932 0.259083
vn 0.447103 -0.853314 0.268243
vn 0.669444 -0.691206 -0.272175
vn 0.759711 -0.630912 -0.157446
vn 0.445158 -0.849603 -0.282858
vn -0.464112 0.885777 0.000000
vn -0.464112 0.885777 0.000000
vn -0.464112 0.885777 0.000010
vn -0.464112 0.885777 0.000000
vn -0.464112 0.885777 0.000042
vn -0.464112 0.885777 0.000010
vn -0.464112 0.885777 0.000042
vn -0.464112 0.885777 0.000000
vn -0.464112 0.885777 0.000010
vn -0.464112 0.885777 0.000000
vn -0.464112 0.885777 -0.000042
vn -0.464112 0.885777 0.000010
vn -0.464112 0.885777 -0.000042
vn -0.464112 0.885777 0.000000
vn -0.464112 0.885777 0.000010
vn -0.464112 0.885777 0.000000
vn -0.464112 0.885777 0.000042
vn -0.464112 0.885777 0.000010
vn -0.464112 0.885777 0.000042
vn -0.464112 0.885777 0.000042
vn -0.464112 0.885777 0.000010
vn -0.464112 0.885777 0.000042
vn -0.464112 0.885777 0.000000
vn -0.464112 0.885777 0.000010
vn 0.814016 0.436972 0.382667
vn 0.814016 0.436972 0.382667
vn 0.747277 0.545768 0.379097
vn 0.747278 0.545768 0.379096
vn 0.334657 0.185807 0.923840
vn 0.334657 0.185807 0.923840
vn 0.272393 0.296947 0.915218
vn 0.272393 0.296947 0.915218
vn -0.343257 -0.169394 0.923840
vn -0.343257 -0.169394 0.923840
vn -0.399196 -0.054939 0.915218
vn -0.399196 -0.054939 0.915218
vn -0.822616 -0.420558 0.382667
vn -0.822616 -0.420558 0.382667
vn -0.874080 -0.303759 0.379096
vn -0.874080 -0.303759 0.379096
vn -0.822616 -0.420558 -0.382667
vn -0.822616 -0.420558 -0.382667
vn -0.874080 -0.303759 -0.379096
vn -0.874080 -0.303759 -0.379096
vn -0.343257 -0.169394 -0.923840
vn -0.343257 -0.169394 -0.923840
vn -0.399195 -0.054938 -0.915219
vn -0.399195 -0.054938 -0.915219
vn 0.334657 0.185807 -0.923840
vn 0.334657 0.185807 -0.923840
vn 0.272392 0.296947 -0.915219
vn 0.272392 0.296947 -0.915219
vn 0.814016 0.436972 -0.382667
vn 0.814016 0.436972 -0.382667
vn 0.747278 0.545768 -0.379096
vn 0.747278 0.545768 -0.379096
vn 0.818351 0.428783 0.382683
vn 0.818351 0.428783 0.382683
vn 0.814016 0.436972 0.382667
vn 0.814016 0.436972 0.382667
vn 0.338972 0.177608 0.923880
vn 0.338972 0.177608 0.923880
vn 0.334657 0.185807 0.923840
vn 0.334657 0.185807 0.923840
vn -0.338972 -0.177608 0.923880
vn -0.338972 -0.177608 0.923880
vn -0.343257 -0.169394 0.923840
vn -0.343257 -0.169394 0.923840
vn -0.818351 -0.428783 0.382683
vn -0.818351 -0.428783 0.382683
vn -0.822616 -0.420558 0.382667
vn -0.822616 -0.420558 0.382667
vn -0.818351 -0.428783 -0.382683
vn -0.818351 -0.428783 -0.382683
vn -0.822616 -0.420558 -0.382667
vn -0.822616 -0.420558 -0.382667
vn -0.338972 -0.177608 -0.923880
vn -0.338972 -0.177608 -0.923880
vn -0.343257 -0.169394 -0.923840
vn -0.343257 -0.169394 -0.923840
vn 0.338972 0.177608 -0.923880
vn 0.338972 0.177608 -0.923880
vn 0.334657 0.185807 -0.923840
vn 0.334657 0.185807 -0.923840
vn 0.818351 0.428783 -0.382684
vn 0.818351 0.428783 -0.382684
vn 0.814016 0.436972 -0.382667
vn 0.814016 0.436972 -0.382667
vn -0.935912 -0.036277 0.350360
vn -0.935912 -0.036277 0.350360
vn -0.906443 -0.201294 0.371271
vn -0.851092 -0.360602 0.381588
vn 0.212611 -0.666670 -0.714386
vn 0.322235 -0.614999 -0.719681
vn 0.212742 -0.406027 -0.888754
vn 0.023241 -0.381000 -0.924283
vn -0.567771 0.499951 0.653977
vn -0.567771 0.499951 0.653977
vn -0.507372 0.226248 0.831496
vn -0.477415 0.136482 0.868014
vn -0.087883 0.751392 0.653977
vn -0.087883 0.751392 0.653977
vn 0.159529 0.470216 0.868014
vn 0.102775 0.545941 0.831496
vn 0.562549 0.748857 0.350360
vn 0.562549 0.748857 0.350360
vn 0.780928 0.494512 0.381588
vn 0.681451 0.630700 0.371271
vn 0.322235 -0.614999 -0.719681
vn 0.427118 -0.554278 -0.714386
vn 0.300029 -0.235974 -0.924283
vn 0.212742 -0.406027 -0.888754
vn -0.069711 0.735003 -0.674471
vn -0.069711 0.735003 -0.674471
vn 0.106795 0.540812 -0.834336
vn 0.161593 0.467333 -0.869188
vn -0.564639 0.475681 -0.674470
vn -0.564639 0.475681 -0.674471
vn -0.476219 0.133144 -0.869188
vn -0.505443 0.220024 -0.834336
vn -0.932349 -0.067888 -0.355130
vn -0.932349 -0.067888 -0.355130
vn -0.849669 -0.363836 -0.381689
vn -0.903377 -0.212756 -0.372350
vn 0.314921 -0.601040 0.734558
vn 0.199628 -0.655219 0.728585
vn 0.017850 -0.386578 0.922084
vn 0.213525 -0.407521 0.887882
vn 0.586511 0.727934 -0.355130
vn 0.586511 0.727934 -0.355130
vn 0.689130 0.621655 -0.372350
vn 0.782777 0.491501 -0.381689
vn 0.425093 -0.537086 0.728584
vn 0.314921 -0.601040 0.734558
vn 0.213525 -0.407521 0.887882
vn 0.307683 -0.234717 0.922084
vn 0.161593 0.467333 -0.869188
vn 0.106795 0.540812 -0.834336
vn 0.338973 0.177609 -0.923879
vn 0.338973 0.177609 -0.923879
vn -0.505443 0.220024 -0.834336
vn -0.476219 0.133144 -0.869188
vn -0.338973 -0.177608 -0.923879
vn -0.338973 -0.177608 -0.923879
vn -0.903377 -0.212756 -0.372350
vn -0.849669 -0.363836 -0.381689
vn -0.818351 -0.428783 -0.382684
vn -0.818351 -0.428783 -0.382684
vn 0.213525 -0.407521 0.887882
vn 0.017850 -0.386578 0.922084
vn -0.133085 -0.125392 0.983141
vn 0.023246 -0.044365 0.998745
vn 0.782777 0.491501 -0.381689
vn 0.689130 0.621655 -0.372350
vn 0.818351 0.428783 -0.382684
vn 0.818351 0.428783 -0.382684
vn 0.307683 -0.234717 0.922084
vn 0.213525 -0.407521 0.887882
vn 0.023246 -0.044365 0.998745
vn 0.178848 0.038048 0.983141
vn -0.851092 -0.360602 0.381588
vn -0.906443 -0.201294 0.371271
vn -0.818351 -0.428784 0.382682
vn -0.818351 -0.428784 0.382682
vn 0.023241 -0.381000 -0.924283
vn 0.212742 -0.406027 -0.888754
vn 0.022490 -0.042923 -0.998825
vn -0.125075 -0.119480 -0.984927
vn -0.477415 0.136482 0.868014
vn -0.507372 0.226248 0.831496
vn -0.338969 -0.177606 0.923881
vn -0.338969 -0.177606 0.923881
vn 0.102775 0.545941 0.831496
vn 0.159529 0.470216 0.868014
vn 0.338969 0.177606 0.923881
vn 0.338969 0.177606 0.923881
vn 0.681451 0.630700 0.371271
vn 0.780928 0.494512 0.381588
vn 0.818351 0.428784 0.382682
vn 0.818351 0.428784 0.382682
vn 0.212742 -0.406027 -0.888754
vn 0.300029 -0.235974 -0.924283
vn 0.169429 0.034828 -0.984927
vn 0.022490 -0.042923 -0.998825
vn 0.464112 -0.885777 0.000000
vn 0.464112 -0.885777 0.000000
vn 0.464112 -0.885777 0.000000
vn 0.464112 -0.885777 0.000000
vn -0.464112 0.885777 0.000000
vn -0.464112 0.885777 0.000000
vn -0.464112 0.885777 0.000000
vn -0.464112 0.885777 0.000000
vn 0.464112 -0.885777 0.000000
vn 0.464112 -0.885777 0.000000
vn 0.464112 -0.885777 0.000000
vn 0.464112 -0.885777 0.000000
vn -0.464112 0.885777 0.000000
vn -0.464112 0.885777 0.000000
vn -0.464112 0.885777 0.000000
vn -0.464112 0.885777 0.000000
vn 0.464112 -0.885777 0.000000
vn 0.464112 -0.885777 0.000000
vn 0.464112 -0.885777 0.000000
vn 0.464112 -0.885777 0.000000
vn -0.464112 0.885777 0.000000
vn -0.464112 0.885777 0.000000
vn -0.464112 0.885777 0.000000
vn -0.464112 0.885777 0.000000
vn 0.464112 -0.885777 0.000000
vn 0.464112 -0.885777 0.000000
vn 0.464112 -0.885777 0.000000
vn 0.464112 -0.885777 0.000000
vn -0.464112 0.885777 0.000000
vn -0.464112 0.885777 0.000000
vn -0.464112 0.885777 0.000000
vn -0.464112 0.885777 0.000000
vn 0.464112 -0.885777 0.000000
vn 0.464112 -0.885777 0.000001
vn 0.464112 -0.885777 0.000001
vn 0.464112 -0.885777 0.000000
vn -0.464112 0.885777 -0.000001
vn -0.464112 0.885777 0.000000
vn -0.464112 0.885777 0.000000
vn -0.464112 0.885777 -0.000001
vn 0.464112 -0.885777 0.000001
vn 0.464112 -0.885777 0.000001
vn 0.464112 -0.885777 0.000001
vn 0.464112 -0.885777 0.000001
vn -0.464112 0.885777 -0.000001
vn -0.464112 0.885777 -0.000001
vn -0.464112 0.885777 -0.000001
vn -0.464112 0.885777 -0.000001
vn 0.464112 -0.885777 0.000001
vn 0.464112 -0.885777 0.000000
vn 0.464112 -0.885777 0.000000
vn 0.464112 -0.885777 0.000001
vn -0.464112 0.885777 0.000000
vn -0.464112 0.885777 -0.000001
vn -0.464112 0.885777 -0.000001
vn -0.464112 0.885777 0.000000
vn 0.464112 -0.885777 0.000000
vn 0.464112 -0.885777 0.000000
vn 0.464112 -0.885777 0.000000
vn 0.464112 -0.885777 0.000000
vn -0.464112 0.885777 0.000000
vn -0.464112 0.885777 0.000000
vn -0.464112 0.885777 0.000000
vn -0.464112 0.885777 0.000000
s off
g initialShadingGroup pCylinder1
f 59/1/1 60/2/2 61/3/3 62/4/4
f 60/2/5 63/5/6 64/6/7 61/3/8
f 63/7/9 65/8/10 66/9/11 64/10/12
f 65/8/13 67/11/14 68/12/15 66/9/16
f 67/13/17 69/14/18 70/15/19 68/16/20
f 69/14/21 71/17/22 72/18/23 70/15/24
f 71/19/25 73/20/26 74/21/27 72/22/28
f 73/20/29 59/23/30 62/24/31 74/21/32
f 48/25/33 47/26/34 49/27/35
f 50/28/36 48/25/37 49/27/38
f 51/29/39 50/28/40 49/27/41
f 54/30/42 53/31/43 55/32/44
f 56/33/45 54/30/46 55/32/47
f 57/34/48 56/33/49 55/32/50
f 58/35/51 57/34/52 55/32/53
f 47/26/54 52/36/55 49/27/56
f 9/37/57 10/38/58 18/39/59
f 10/38/60 11/40/61 18/39/62
f 11/40/63 12/41/64 18/39/65
f 12/41/66 13/42/67 18/39/68
f 13/42/69 14/43/70 18/39/71
f 14/43/72 15/44/73 18/39/74
f 15/44/75 16/45/76 18/39/77
f 16/45/78 9/37/79 18/39/80
f 20/46/81 19/47/82 16/45/83 15/44/84
f 21/48/85 20/46/86 15/44/87 14/43/88
f 22/49/89 21/48/90 14/43/91 13/42/92
f 23/50/93 22/49/94 13/42/95 12/41/96
f 24/51/97 23/50/98 12/41/99 11/40/100
f 25/52/101 24/51/102 11/40/103 10/38/104
f 26/53/105 25/52/106 10/38/107 9/37/108
f 19/47/109 26/53/110 9/37/111 16/45/112
f 28/54/113 27/55/114 19/56/115 20/57/116
f 29/58/117 28/59/118 20/60/119 21/61/120
f 30/62/121 29/58/122 21/61/123 22/63/124
f 31/64/125 30/65/126 22/66/127 23/67/128
f 32/68/129 31/64/130 23/67/131 24/69/132
f 33/70/133 32/71/134 24/72/135 25/73/136
f 34/74/137 33/70/138 25/73/139 26/75/140
f 27/55/141 34/76/142 26/77/143 19/56/144
f 5/78/145 4/79/146 35/80/147 36/81/148
f 4/82/149 17/83/150 37/84/151 35/85/152
f 6/86/153 5/78/154 36/81/155 38/87/156
f 7/88/157 6/86/158 38/87/159 39/89/160
f 8/90/161 7/88/162 39/89/163 40/91/164
f 17/83/165 8/92/166 40/93/167 37/84/168
f 2/94/169 1/95/170 41/96/171 42/97/172
f 3/98/173 2/94/174 42/97/175 44/99/176
f 4/100/177 3/98/178 44/99/179 45/101/180
f 17/83/181 4/82/182 45/102/183 43/103/184
f 1/95/185 8/104/186 46/105/187 41/96/188
f 8/92/189 17/83/190 43/103/191 46/106/192
f 42/107/193 41/108/194 47/109/195 48/110/196
f 44/111/197 42/107/198 48/110/199 50/112/200
f 45/113/201 44/114/202 50/115/203 51/116/204
f 43/103/205 45/102/206 51/29/207 49/27/208
f 41/117/209 46/118/210 52/119/211 47/120/212
f 46/106/213 43/103/214 49/27/215 52/36/216
f 36/121/217 35/122/218 53/123/219 54/124/220
f 35/85/221 37/84/222 55/32/223 53/31/224
f 38/125/225 36/126/226 54/127/227 56/128/228
f 39/129/229 38/125/230 56/128/231 57/130/232
f 40/131/233 39/132/234 57/133/235 58/134/236
f 37/84/237 40/93/238 58/35/239 55/32/240
f 1/135/241 2/136/242 60/137/243 59/138/244
f 33/139/245 34/140/246 62/141/247 61/142/248
f 2/136/249 3/143/250 63/144/251 60/137/252
f 32/145/253 33/139/254 61/142/255 64/146/256
f 3/143/257 4/147/258 65/148/259 63/144/260
f 31/149/261 32/145/262 64/146/263 66/150/264
f 4/147/265 5/151/266 67/152/267 65/148/268
f 30/153/269 31/149/270 66/150/271 68/154/272
f 5/151/273 6/155/274 69/156/275 67/152/276
f 29/157/277 30/153/278 68/154/279 70/158/280
f 6/155/281 7/159/282 71/160/283 69/156/284
f 28/161/285 29/157/286 70/158/287 72/162/288
f 7/159/289 8/163/290 73/164/291 71/160/292
f 27/165/293 28/161/294 72/162/295 74/166/296
f 8/163/297 1/135/298 59/138/299 73/164/300
f 34/140/301 27/165/302 74/166/303 62/141/304
g default
v -0.429095 0.914499 0.261538
v -0.412946 0.925416 0.261538
v -0.662573 1.259900 0.226982
v -0.646423 1.270817 0.226982
v -0.799410 1.462335 0.021693
v -0.783261 1.473251 0.021693
v -0.799410 1.462335 0.000504
v -0.783261 1.473251 0.000504
v -0.799410 1.462335 -0.020686
v -0.783261 1.473251 -0.020686
v -0.662573 1.259900 -0.225974
v -0.646423 1.270817 -0.225974
v -0.429095 0.914499 -0.260531
v -0.412946 0.925416 -0.260531
v -0.496935 0.868643 0.000504
v -0.480785 0.879559 0.000504
v -0.714263 1.224960 0.000504
v -0.730412 1.214043 0.000504
vt 0.001992 0.727167
vt 0.001992 0.700921
vt 0.213411 0.700921
vt 0.213411 0.727167
vt 0.220470 0.727167
vt 0.220470 0.700921
vt 0.335457 0.700921
vt 0.335457 0.727167
vt 0.347326 0.700921
vt 0.347326 0.727167
vt 0.359195 0.700921
vt 0.359195 0.727167
vt 0.474183 0.700921
vt 0.474183 0.727167
vt 0.481629 0.727167
vt 0.481629 0.700922
vt 0.693049 0.700922
vt 0.693049 0.727167
vt 0.699912 0.727167
vt 0.699912 0.700922
vt 0.846124 0.811171
vt 0.846124 0.837417
vt 0.992337 0.700922
vt 0.992337 0.727167
vt 0.662679 0.948744
vt 0.662679 0.838494
vt 0.874098 0.838494
vt 0.874098 0.948744
vt 0.656543 0.838494
vt 0.656543 0.948744
vt 0.445124 0.948744
vt 0.445124 0.838494
vt 0.998008 0.838494
vt 0.998008 0.838494
vt 0.321214 0.838494
vt 0.321214 0.838494
vt 0.693049 0.837417
vt 0.481629 0.837417
vt 0.001992 0.837417
vt 0.213411 0.837417
vt 0.347326 0.837417
vn -0.046260 0.068434 0.996583
vn -0.046260 0.068434 0.996583
vn -0.046260 0.068434 0.996583
vn -0.046260 0.068434 0.996583
vn -0.190953 0.282492 0.940072
vn -0.190953 0.282492 0.940072
vn -0.360241 0.532931 0.765644
vn -0.360241 0.532931 0.765644
vn -0.560019 0.828480 0.000000
vn -0.560019 0.828480 0.000000
vn -0.560019 0.828480 0.000000
vn -0.560019 0.828480 0.000000
vn -0.560019 0.828480 0.000000
vn -0.560019 0.828480 0.000000
vn -0.560019 0.828480 0.000000
vn -0.560019 0.828480 0.000000
vn -0.360241 0.532931 -0.765644
vn -0.360241 0.532931 -0.765644
vn -0.190953 0.282492 -0.940072
vn -0.190953 0.282492 -0.940072
vn -0.190953 0.282492 -0.940072
vn -0.190953 0.282492 -0.940072
vn -0.046260 0.068436 -0.996582
vn -0.046260 0.068436 -0.996582
vn 0.560019 -0.828480 0.000000
vn 0.560019 -0.828480 0.000000
vn 0.560019 -0.828480 0.000000
vn 0.560019 -0.828480 0.000000
vn 0.560019 -0.828480 0.000000
vn 0.560019 -0.828480 0.000000
vn 0.560019 -0.828480 0.000000
vn 0.560019 -0.828480 0.000000
vn 0.836195 0.548432 0.000000
vn 0.792673 0.519887 0.318412
vn 0.822562 0.472290 0.316756
vn 0.847776 0.530355 0.000000
vn 0.792673 0.519887 -0.318412
vn 0.836195 0.548432 0.000000
vn 0.847776 0.530355 0.000000
vn 0.822562 0.472290 -0.316756
vn 0.847776 0.530355 0.000000
vn 0.822562 0.472290 0.316756
vn 0.911736 0.279087 0.301411
vn 0.956205 0.292699 0.000000
vn 0.822562 0.472290 -0.316756
vn 0.847776 0.530355 0.000000
vn 0.956205 0.292699 0.000000
vn 0.911736 0.279087 -0.301411
vn -0.792673 -0.519887 -0.318412
vn -0.836195 -0.548432 0.000000
vn -0.847776 -0.530355 0.000000
vn -0.822562 -0.472290 -0.316756
vn -0.836195 -0.548432 0.000000
vn -0.792673 -0.519887 0.318412
vn -0.822562 -0.472290 0.316756
vn -0.847776 -0.530355 0.000000
vn -0.822562 -0.472290 -0.316756
vn -0.847776 -0.530355 0.000000
vn -0.956205 -0.292699 0.000000
vn -0.911736 -0.279087 -0.301411
vn -0.847776 -0.530355 0.000000
vn -0.822562 -0.472290 0.316756
vn -0.911736 -0.279087 0.301411
vn -0.956205 -0.292699 0.000000
s off
g initialShadingGroup pCube1
f 75/167/305 76/168/306 78/169/307 77/170/308
f 77/171/309 78/172/310 80/173/311 79/174/312
f 79/174/313 80/173/314 82/175/315 81/176/316
f 81/176/317 82/175/318 84/177/319 83/178/320
f 83/178/321 84/177/322 86/179/323 85/180/324
f 85/181/325 86/182/326 88/183/327 87/184/328
f 87/185/329 88/186/330 90/187/331 89/188/332
f 89/188/333 90/187/334 76/189/335 75/190/336
f 90/191/337 88/192/338 86/193/339 91/194/340
f 76/195/341 90/196/342 91/197/343 78/198/344
f 91/194/345 86/193/346 84/199/347 82/200/348
f 78/198/349 91/197/350 82/201/351 80/202/352
f 87/184/353 89/203/354 92/204/355 85/181/356
f 89/205/357 75/167/358 77/170/359 92/206/360
f 85/180/361 92/207/362 81/176/363 83/178/364
f 92/207/365 77/171/366 79/174/367 81/176/368
g default
v 0.400551 -0.864771 0.142653
v 0.434721 -0.846868 0.142653
v 0.382647 -0.830601 0.142653
v 0.416817 -0.812697 0.142653
v 0.382647 -0.830601 -0.142653
v 0.416817 -0.812697 -0.142653
v 0.400551 -0.864771 -0.142653
v 0.434721 -0.846868 -0.142653
vt 0.001891 0.035126
vt 0.331370 0.035126
vt 0.331370 0.124076
vt 0.001891 0.124076
vt 0.338705 0.035126
vt 0.668185 0.035126
vt 0.668185 0.124076
vt 0.338705 0.124076
vt 0.617659 0.125099
vt 0.947139 0.125099
vt 0.947139 0.214049
vt 0.617659 0.214049
vt 0.282356 0.125099
vt 0.611836 0.125099
vt 0.611836 0.214049
vt 0.282356 0.214049
vt 0.001891 0.215072
vt 0.331370 0.215072
vt 0.331370 0.304023
vt 0.001891 0.304023
vt 0.338705 0.215072
vt 0.668185 0.215072
vt 0.668185 0.304023
vt 0.338705 0.304023
vn 0.000000 0.000000 1.000000
vn 0.000000 0.000000 1.000000
vn 0.000000 0.000000 1.000000
vn 0.000000 0.000000 1.000000
vn -0.464112 0.885777 0.000000
vn -0.464112 0.885777 0.000000
vn -0.464112 0.885777 0.000000
vn -0.464112 0.885777 0.000000
vn 0.000000 0.000000 -1.000000
vn 0.000000 0.000000 -1.000000
vn 0.000000 0.000000 -1.000000
vn 0.000000 0.000000 -1.000000
vn 0.464112 -0.885777 0.000000
vn 0.464112 -0.885777 0.000000
vn 0.464112 -0.885777 0.000000
vn 0.464112 -0.885777 0.000000
vn 0.885777 0.464112 0.000000
vn 0.885777 0.464112 0.000000
vn 0.885777 0.464112 0.000000
vn 0.885777 0.464112 0.000000
vn -0.885777 -0.464112 0.000000
vn -0.885777 -0.464112 0.000000
vn -0.885777 -0.464112 0.000000
vn -0.885777 -0.464112 0.000000
s off
g initialShadingGroup pCube2
f 93/208/369 94/209/370 96/210/371 95/211/372
f 95/212/373 96/213/374 98/214/375 97/215/376
f 97/216/377 98/217/378 100/218/379 99/219/380
f 99/220/381 100/221/382 94/222/383 93/223/384
f 94/224/385 100/225/386 98/226/387 96/227/388
f 99/228/389 93/229/390 95/230/391 97/231/392
