# This file uses centimeters as units for non-parametric coordinates.

mtllib book.mtl
g default
v -0.650000 0.000000 1.033058
v 0.650000 0.000000 1.033058
v -0.650000 0.057889 1.033058
v 0.650000 0.057889 1.033058
v -0.650000 0.057889 -1.033058
v 0.650000 0.057889 -1.033058
v -0.650000 0.000000 -1.033058
v 0.650000 0.000000 -1.033058
vt 0.033672 0.005296
vt 0.051193 0.005296
vt 0.033672 0.022818
vt 0.051193 0.022818
vt 0.033672 0.040339
vt 0.051193 0.040339
vt 0.033672 0.057860
vt 0.051193 0.057860
vt 0.033672 0.075382
vt 0.051193 0.075382
vt 0.068715 0.005296
vt 0.068715 0.022818
vt 0.016151 0.005296
vt 0.016151 0.022818
vn 0.000000 0.000000 1.000000
vn 0.000000 0.000000 1.000000
vn 0.000000 0.000000 1.000000
vn 0.000000 0.000000 1.000000
vn 0.000000 1.000000 0.000000
vn 0.000000 1.000000 0.000000
vn 0.000000 1.000000 0.000000
vn 0.000000 1.000000 0.000000
vn 0.000000 0.000000 -1.000000
vn 0.000000 0.000000 -1.000000
vn 0.000000 0.000000 -1.000000
vn 0.000000 0.000000 -1.000000
vn 0.000000 -1.000000 0.000000
vn 0.000000 -1.000000 0.000000
vn 0.000000 -1.000000 0.000000
vn 0.000000 -1.000000 0.000000
vn 1.000000 0.000000 0.000000
vn 1.000000 0.000000 0.000000
vn 1.000000 0.000000 0.000000
vn 1.000000 0.000000 0.000000
vn -1.000000 0.000000 0.000000
vn -1.000000 0.000000 0.000000
vn -1.000000 0.000000 0.000000
vn -1.000000 0.000000 0.000000
s 1
g pCube1
usemtl lambert6SG
f 1/1/1 2/2/2 3/3/3
f 3/3/3 2/2/2 4/4/4
s 2
f 3/3/5 4/4/6 5/5/7
f 5/5/7 4/4/6 6/6/8
s 3
f 5/5/9 6/6/10 7/7/11
f 7/7/11 6/6/10 8/8/12
s 4
f 7/7/13 8/8/14 1/9/15
f 1/9/15 8/8/14 2/10/16
s 5
f 2/2/17 8/11/18 4/4/19
f 4/4/19 8/11/18 6/12/20
s 6
f 7/13/21 1/1/22 5/14/23
f 5/14/23 1/1/22 3/3/24
g default
v -0.573513 0.023858 0.960310
v 0.573513 0.023858 0.960310
v -0.573513 0.085056 0.937573
v 0.573513 0.085056 0.937573
v -0.573513 0.127346 0.888979
v 0.573513 0.127346 0.888979
v -0.573513 0.204536 0.756056
v 0.573513 0.204536 0.756056
v -0.573513 0.181004 0.477599
v 0.573513 0.181004 0.477599
v -0.573513 0.152258 0.197094
v 0.573513 0.152258 0.197094
v -0.573513 0.108229 0.000000
v 0.573513 0.108229 0.000000
v -0.573513 0.152258 -0.197094
v 0.573513 0.152258 -0.197094
v -0.573513 0.181004 -0.477599
v 0.573513 0.181004 -0.477599
v -0.573513 0.204536 -0.756056
v 0.573513 0.204536 -0.756056
v -0.573513 0.127346 -0.888979
v 0.573513 0.127346 -0.888979
v -0.573513 0.085056 -0.937573
v 0.573513 0.085056 -0.937573
v -0.573513 0.023858 -0.960310
v 0.573513 0.023858 -0.960310
v -0.573513 0.023858 -0.000000
v 0.573513 0.023858 -0.000000
vt 0.984116 0.942155
vt 0.984093 0.942155
vt 0.015901 0.974254
vt 0.943770 0.982468
vt 0.042612 0.974246
vt 0.033283 0.114673
vt 0.139541 0.974238
vt 0.139451 0.114665
vt 0.236469 0.974231
vt 0.236379 0.114657
vt 0.333398 0.974223
vt 0.333308 0.114649
vt 0.489855 0.974215
vt 0.430236 0.114641
vt 0.656023 0.974207
vt 0.655870 0.114633
vt 0.822193 0.974199
vt 0.822040 0.114625
vt 0.459699 0.974191
vt 0.988209 0.114617
vt 0.467865 0.974184
vt 0.467857 0.114609
vt 0.943780 0.942125
vt 0.476023 0.114601
vt 0.943780 0.982439
vt 0.984093 0.982439
vt 0.984083 0.942155
vt 0.978036 0.942155
vt 0.974005 0.942155
vt 0.969974 0.942155
vt 0.965942 0.942155
vt 0.961911 0.942155
vt 0.957880 0.942155
vt 0.953848 0.942155
vt 0.949817 0.942155
vt 0.947801 0.942155
vt 0.984083 0.982468
vt 0.980052 0.982468
vt 0.976021 0.982468
vt 0.971989 0.982468
vt 0.967958 0.982468
vt 0.963926 0.982468
vt 0.959895 0.982468
vt 0.955864 0.982468
vt 0.951833 0.982468
vt 0.947801 0.982468
vt 0.943803 0.942155
vt 0.947834 0.942155
vt 0.949850 0.942155
vt 0.953881 0.942155
vt 0.957912 0.942155
vt 0.961944 0.942155
vt 0.965975 0.942155
vt 0.970006 0.942155
vt 0.974038 0.942155
vt 0.978069 0.942155
vt 0.943803 0.982468
vt 0.947834 0.982468
vt 0.951865 0.982468
vt 0.955897 0.982468
vt 0.959928 0.982468
vt 0.963959 0.982468
vt 0.967991 0.982468
vt 0.972022 0.982468
vt 0.976054 0.982468
vt 0.980085 0.982468
vt 0.980085 0.942155
vt 0.033299 0.974246
vt 0.980085 0.982468
vt 0.139541 0.974238
vt 0.976054 0.982468
vt 0.236469 0.974231
vt 0.972022 0.982468
vt 0.333398 0.974223
vt 0.967991 0.982468
vt 0.430327 0.974215
vt 0.963959 0.982468
vt 0.656023 0.974207
vt 0.959928 0.982468
vt 0.822193 0.974199
vt 0.955897 0.982468
vt 0.988364 0.974191
vt 0.951865 0.982468
vt 0.467865 0.974184
vt 0.947834 0.982468
vt 0.042523 0.114673
vt 0.947801 0.982468
vt 0.139451 0.114665
vt 0.951833 0.982468
vt 0.236379 0.114657
vt 0.955864 0.982468
vt 0.333308 0.114649
vt 0.959895 0.982468
vt 0.489700 0.114641
vt 0.963926 0.982468
vt 0.655870 0.114633
vt 0.967958 0.982468
vt 0.822040 0.114625
vt 0.971989 0.982468
vt 0.459692 0.114617
vt 0.976021 0.982468
vt 0.980052 0.942155
vt 0.467857 0.114609
vt 0.980052 0.982468
vt 0.943770 0.942155
vt 0.943780 0.942155
vt 0.984093 0.942125
vt 0.476031 0.974175
vt 0.984093 0.982468
vt 0.015886 0.114681
vt 0.943780 0.982468
vt 0.984116 0.982468
vn 0.000000 0.348261 0.937397
vn 0.000000 0.348260 0.937398
vn 0.000000 0.348261 0.937397
vn 0.000000 0.348260 0.937398
vn 0.000000 0.754347 0.656476
vn 0.000000 0.754347 0.656476
vn 0.000000 0.835289 0.549811
vn 0.000000 0.835289 0.549811
vn 0.000000 0.991600 0.129339
vn 0.000000 0.991600 0.129339
vn 0.000000 0.995655 -0.093120
vn 0.000000 0.995655 -0.093120
vn 0.000000 0.988589 -0.150638
vn 0.000000 0.988589 -0.150638
vn 0.000000 1.000000 -0.000000
vn 0.000000 1.000000 0.000000
vn 0.000000 0.988589 0.150638
vn 0.000000 0.988589 0.150638
vn 0.000000 0.995655 0.093120
vn 0.000000 0.995655 0.093120
vn 0.000000 0.991600 -0.129339
vn 0.000000 0.991600 -0.129339
vn 0.000000 0.835289 -0.549810
vn 0.000000 0.835289 -0.549810
vn 0.000000 0.754347 -0.656476
vn 0.000000 0.754347 -0.656476
vn 0.000000 0.348260 -0.937398
vn 0.000000 0.348260 -0.937398
vn 0.000000 0.348260 -0.937398
vn 0.000000 0.348260 -0.937398
vn 1.000000 0.000000 0.000000
vn 1.000000 0.000000 0.000000
vn 1.000000 0.000000 0.000000
vn 1.000000 0.000000 0.000000
vn 1.000000 0.000000 0.000000
vn 1.000000 0.000000 0.000000
vn 1.000000 0.000000 0.000000
vn 1.000000 -0.000000 0.000000
vn 1.000000 0.000002 0.000000
vn 1.000000 -0.000001 0.000000
vn 1.000000 0.000001 0.000000
vn 1.000000 0.000000 0.000000
vn 1.000000 0.000000 0.000000
vn 1.000000 0.000000 0.000000
vn -1.000000 0.000000 0.000000
vn -1.000000 0.000000 0.000000
vn -1.000000 0.000000 0.000000
vn -1.000000 0.000000 0.000000
vn -1.000000 0.000000 0.000000
vn -1.000000 0.000000 0.000000
vn -1.000000 0.000000 0.000000
vn -1.000000 0.000000 0.000000
vn -1.000000 0.000001 0.000000
vn -1.000000 -0.000002 0.000000
vn -1.000000 0.000001 0.000000
vn -1.000000 -0.000000 0.000000
vn -1.000000 0.000000 0.000000
vn -1.000000 -0.000000 0.000000
s 1
g pCube2
usemtl lambert6SG
f 9/120/25 10/16/26 11/125/27
f 11/125/27 10/16/26 12/123/28
s 2
f 11/17/29 12/124/30 13/82/31
f 13/82/31 12/124/30 14/20/32
f 13/19/31 14/100/32 15/84/33
f 15/84/33 14/100/32 16/22/34
f 15/21/33 16/102/34 17/86/35
f 17/86/35 16/102/34 18/24/36
f 17/23/35 18/104/36 19/88/37
f 19/88/37 18/104/36 20/26/38
f 19/25/37 20/106/38 21/90/39
f 21/90/39 20/106/38 22/28/40
f 21/27/39 22/108/40 23/92/41
f 23/92/41 22/108/40 24/30/42
f 23/29/41 24/110/42 25/94/43
f 25/94/43 24/110/42 26/32/44
f 25/31/43 26/112/44 27/96/45
f 27/96/45 26/112/44 28/34/46
f 27/33/45 28/114/46 29/98/47
f 29/98/47 28/114/46 30/36/48
f 29/35/47 30/117/48 31/122/49
f 31/122/49 30/117/48 32/38/50
s 3
f 31/37/51 32/121/52 33/39/53
f 33/39/53 32/121/52 34/40/54
s 4
f 34/41/55 32/51/56 36/116/57
f 36/116/57 32/51/56 30/118/58
f 36/42/57 30/52/58 28/115/59
f 36/43/57 28/53/59 26/113/60
f 36/44/57 26/54/60 24/111/61
f 36/45/57 24/55/61 22/109/62
f 36/46/57 22/56/62 20/107/63
f 36/47/57 20/57/63 18/105/64
f 36/48/57 18/58/64 16/103/65
f 36/49/57 16/59/65 14/101/66
f 10/119/67 36/50/57 12/18/68
f 36/50/57 14/60/66 12/18/68
s 5
f 33/61/69 35/62/70 31/71/71
f 35/62/70 29/72/72 31/71/71
f 35/63/70 27/73/73 29/99/72
f 35/64/70 25/74/74 27/97/73
f 35/65/70 23/75/75 25/95/74
f 35/66/70 21/76/76 23/93/75
f 35/67/70 19/77/77 21/91/76
f 35/68/70 17/78/78 19/89/77
f 35/69/70 15/79/79 17/87/78
f 35/70/70 13/80/80 15/85/79
f 9/15/81 11/126/82 35/81/70
f 35/81/70 11/126/82 13/83/80
g default
v -0.650000 0.000000 1.033058
v 0.650000 0.000000 1.033058
v -0.650000 0.057889 1.033058
v 0.650000 0.057889 1.033058
v -0.650000 0.057889 -1.033058
v 0.650000 0.057889 -1.033058
v -0.650000 0.000000 -1.033058
v 0.650000 0.000000 -1.033058
vt 0.033672 0.005296
vt 0.051193 0.005296
vt 0.033672 0.022818
vt 0.051193 0.022818
vt 0.033672 0.040339
vt 0.051193 0.040339
vt 0.033672 0.057860
vt 0.051193 0.057860
vt 0.033672 0.075382
vt 0.051193 0.075382
vt 0.068715 0.005296
vt 0.068715 0.022818
vt 0.016151 0.005296
vt 0.016151 0.022818
vn 0.000000 0.000000 1.000000
vn 0.000000 0.000000 1.000000
vn 0.000000 0.000000 1.000000
vn 0.000000 0.000000 1.000000
vn 0.000000 1.000000 0.000000
vn 0.000000 1.000000 0.000000
vn 0.000000 1.000000 0.000000
vn 0.000000 1.000000 0.000000
vn 0.000000 0.000000 -1.000000
vn 0.000000 0.000000 -1.000000
vn 0.000000 0.000000 -1.000000
vn 0.000000 0.000000 -1.000000
vn 0.000000 -1.000000 0.000000
vn 0.000000 -1.000000 0.000000
vn 0.000000 -1.000000 0.000000
vn 0.000000 -1.000000 0.000000
vn 1.000000 0.000000 0.000000
vn 1.000000 0.000000 0.000000
vn 1.000000 0.000000 0.000000
vn 1.000000 0.000000 0.000000
vn -1.000000 0.000000 0.000000
vn -1.000000 0.000000 0.000000
vn -1.000000 0.000000 0.000000
vn -1.000000 0.000000 0.000000
s 1
g pCube1
f 37/127/83 38/128/84 39/129/85
f 39/129/85 38/128/84 40/130/86
s 2
f 39/129/87 40/130/88 41/131/89
f 41/131/89 40/130/88 42/132/90
s 3
f 41/131/91 42/132/92 43/133/93
f 43/133/93 42/132/92 44/134/94
s 4
f 43/133/95 44/134/96 37/135/97
f 37/135/97 44/134/96 38/136/98
s 5
f 38/128/99 44/137/100 40/130/101
f 40/130/101 44/137/100 42/138/102
s 6
f 43/139/103 37/127/104 41/140/105
f 41/140/105 37/127/104 39/129/106
g default
v -0.573513 0.023858 0.960310
v 0.573513 0.023858 0.960310
v -0.573513 0.085056 0.937573
v 0.573513 0.085056 0.937573
v -0.573513 0.127346 0.888979
v 0.573513 0.127346 0.888979
v -0.573513 0.204536 0.756056
v 0.573513 0.204536 0.756056
v -0.573513 0.181004 0.477599
v 0.573513 0.181004 0.477599
v -0.573513 0.152258 0.197094
v 0.573513 0.152258 0.197094
v -0.573513 0.108229 0.000000
v 0.573513 0.108229 0.000000
v -0.573513 0.152258 -0.197094
v 0.573513 0.152258 -0.197094
v -0.573513 0.181004 -0.477599
v 0.573513 0.181004 -0.477599
v -0.573513 0.204536 -0.756056
v 0.573513 0.204536 -0.756056
v -0.573513 0.127346 -0.888979
v 0.573513 0.127346 -0.888979
v -0.573513 0.085056 -0.937573
v 0.573513 0.085056 -0.937573
v -0.573513 0.023858 -0.960310
v 0.573513 0.023858 -0.960310
v -0.573513 0.023858 -0.000000
v 0.573513 0.023858 -0.000000
vt 0.984116 0.942155
vt 0.984093 0.942155
vt 0.015901 0.974254
vt 0.943770 0.982468
vt 0.042612 0.974246
vt 0.033283 0.114673
vt 0.139541 0.974238
vt 0.139451 0.114665
vt 0.236469 0.974231
vt 0.236379 0.114657
vt 0.333398 0.974223
vt 0.333308 0.114649
vt 0.489855 0.974215
vt 0.430236 0.114641
vt 0.656023 0.974207
vt 0.655870 0.114633
vt 0.822193 0.974199
vt 0.822040 0.114625
vt 0.459699 0.974191
vt 0.988209 0.114617
vt 0.467865 0.974184
vt 0.467857 0.114609
vt 0.943780 0.942125
vt 0.476023 0.114601
vt 0.943780 0.982439
vt 0.984093 0.982439
vt 0.984083 0.942155
vt 0.978036 0.942155
vt 0.974005 0.942155
vt 0.969974 0.942155
vt 0.965942 0.942155
vt 0.961911 0.942155
vt 0.957880 0.942155
vt 0.953848 0.942155
vt 0.949817 0.942155
vt 0.947801 0.942155
vt 0.984083 0.982468
vt 0.980052 0.982468
vt 0.976021 0.982468
vt 0.971989 0.982468
vt 0.967958 0.982468
vt 0.963926 0.982468
vt 0.959895 0.982468
vt 0.955864 0.982468
vt 0.951833 0.982468
vt 0.947801 0.982468
vt 0.943803 0.942155
vt 0.947834 0.942155
vt 0.949850 0.942155
vt 0.953881 0.942155
vt 0.957912 0.942155
vt 0.961944 0.942155
vt 0.965975 0.942155
vt 0.970006 0.942155
vt 0.974038 0.942155
vt 0.978069 0.942155
vt 0.943803 0.982468
vt 0.947834 0.982468
vt 0.951865 0.982468
vt 0.955897 0.982468
vt 0.959928 0.982468
vt 0.963959 0.982468
vt 0.967991 0.982468
vt 0.972022 0.982468
vt 0.976054 0.982468
vt 0.980085 0.982468
vt 0.980085 0.942155
vt 0.033299 0.974246
vt 0.980085 0.982468
vt 0.139541 0.974238
vt 0.976054 0.982468
vt 0.236469 0.974231
vt 0.972022 0.982468
vt 0.333398 0.974223
vt 0.967991 0.982468
vt 0.430327 0.974215
vt 0.963959 0.982468
vt 0.656023 0.974207
vt 0.959928 0.982468
vt 0.822193 0.974199
vt 0.955897 0.982468
vt 0.988364 0.974191
vt 0.951865 0.982468
vt 0.467865 0.974184
vt 0.947834 0.982468
vt 0.042523 0.114673
vt 0.947801 0.982468
vt 0.139451 0.114665
vt 0.951833 0.982468
vt 0.236379 0.114657
vt 0.955864 0.982468
vt 0.333308 0.114649
vt 0.959895 0.982468
vt 0.489700 0.114641
vt 0.963926 0.982468
vt 0.655870 0.114633
vt 0.967958 0.982468
vt 0.822040 0.114625
vt 0.971989 0.982468
vt 0.459692 0.114617
vt 0.976021 0.982468
vt 0.980052 0.942155
vt 0.467857 0.114609
vt 0.980052 0.982468
vt 0.943770 0.942155
vt 0.943780 0.942155
vt 0.984093 0.942125
vt 0.476031 0.974175
vt 0.984093 0.982468
vt 0.015886 0.114681
vt 0.943780 0.982468
vt 0.984116 0.982468
vn 0.000000 0.348261 0.937397
vn 0.000000 0.348260 0.937398
vn 0.000000 0.348261 0.937397
vn 0.000000 0.348260 0.937398
vn 0.000000 0.754347 0.656476
vn 0.000000 0.754347 0.656476
vn 0.000000 0.835289 0.549811
vn 0.000000 0.835289 0.549811
vn 0.000000 0.991600 0.129339
vn 0.000000 0.991600 0.129339
vn 0.000000 0.995655 -0.093120
vn 0.000000 0.995655 -0.093120
vn 0.000000 0.988589 -0.150638
vn 0.000000 0.988589 -0.150638
vn 0.000000 1.000000 -0.000000
vn 0.000000 1.000000 0.000000
vn 0.000000 0.988589 0.150638
vn 0.000000 0.988589 0.150638
vn 0.000000 0.995655 0.093120
vn 0.000000 0.995655 0.093120
vn 0.000000 0.991600 -0.129339
vn 0.000000 0.991600 -0.129339
vn 0.000000 0.835289 -0.549810
vn 0.000000 0.835289 -0.549810
vn 0.000000 0.754347 -0.656476
vn 0.000000 0.754347 -0.656476
vn 0.000000 0.348260 -0.937398
vn 0.000000 0.348260 -0.937398
vn 0.000000 0.348260 -0.937398
vn 0.000000 0.348260 -0.937398
vn 1.000000 0.000000 0.000000
vn 1.000000 0.000000 0.000000
vn 1.000000 0.000000 0.000000
vn 1.000000 0.000000 0.000000
vn 1.000000 0.000000 0.000000
vn 1.000000 0.000000 0.000000
vn 1.000000 0.000000 0.000000
vn 1.000000 -0.000000 0.000000
vn 1.000000 0.000002 0.000000
vn 1.000000 -0.000001 0.000000
vn 1.000000 0.000001 0.000000
vn 1.000000 0.000000 0.000000
vn 1.000000 0.000000 0.000000
vn 1.000000 0.000000 0.000000
vn -1.000000 0.000000 0.000000
vn -1.000000 0.000000 0.000000
vn -1.000000 0.000000 0.000000
vn -1.000000 0.000000 0.000000
vn -1.000000 0.000000 0.000000
vn -1.000000 0.000000 0.000000
vn -1.000000 0.000000 0.000000
vn -1.000000 0.000000 0.000000
vn -1.000000 0.000001 0.000000
vn -1.000000 -0.000002 0.000000
vn -1.000000 0.000001 0.000000
vn -1.000000 -0.000000 0.000000
vn -1.000000 0.000000 0.000000
vn -1.000000 -0.000000 0.000000
s 1
g pCube2
f 45/246/107 46/142/108 47/251/109
f 47/251/109 46/142/108 48/249/110
s 2
f 47/143/111 48/250/112 49/208/113
f 49/208/113 48/250/112 50/146/114
f 49/145/113 50/226/114 51/210/115
f 51/210/115 50/226/114 52/148/116
f 51/147/115 52/228/116 53/212/117
f 53/212/117 52/228/116 54/150/118
f 53/149/117 54/230/118 55/214/119
f 55/214/119 54/230/118 56/152/120
f 55/151/119 56/232/120 57/216/121
f 57/216/121 56/232/120 58/154/122
f 57/153/121 58/234/122 59/218/123
f 59/218/123 58/234/122 60/156/124
f 59/155/123 60/236/124 61/220/125
f 61/220/125 60/236/124 62/158/126
f 61/157/125 62/238/126 63/222/127
f 63/222/127 62/238/126 64/160/128
f 63/159/127 64/240/128 65/224/129
f 65/224/129 64/240/128 66/162/130
f 65/161/129 66/243/130 67/248/131
f 67/248/131 66/243/130 68/164/132
s 3
f 67/163/133 68/247/134 69/165/135
f 69/165/135 68/247/134 70/166/136
s 4
f 70/167/137 68/177/138 72/242/139
f 72/242/139 68/177/138 66/244/140
f 72/168/139 66/178/140 64/241/141
f 72/169/139 64/179/141 62/239/142
f 72/170/139 62/180/142 60/237/143
f 72/171/139 60/181/143 58/235/144
f 72/172/139 58/182/144 56/233/145
f 72/173/139 56/183/145 54/231/146
f 72/174/139 54/184/146 52/229/147
f 72/175/139 52/185/147 50/227/148
f 46/245/149 72/176/139 48/144/150
f 72/176/139 50/186/148 48/144/150
s 5
f 69/187/151 71/188/152 67/197/153
f 71/188/152 65/198/154 67/197/153
f 71/189/152 63/199/155 65/225/154
f 71/190/152 61/200/156 63/223/155
f 71/191/152 59/201/157 61/221/156
f 71/192/152 57/202/158 59/219/157
f 71/193/152 55/203/159 57/217/158
f 71/194/152 53/204/160 55/215/159
f 71/195/152 51/205/161 53/213/160
f 71/196/152 49/206/162 51/211/161
f 45/141/163 47/252/164 71/207/152
f 71/207/152 47/252/164 49/209/162
