# This file uses centimeters as units for non-parametric coordinates.

mtllib fridgedefault.mtl
g default
v -0.750000 0.000000 1.250000
v 0.750000 0.000000 1.250000
v -0.750000 4.000000 1.250000
v 0.750000 4.000000 1.250000
v -0.750000 4.000000 -1.250000
v 0.750000 4.000000 -1.250000
v -0.750000 0.000000 -1.250000
v 0.750000 0.000000 -1.250000
vt 0.431571 0.606325
vt 0.513514 0.606325
vt 0.431571 0.688268
vt 0.513514 0.688268
vt 0.431571 0.770212
vt 0.513514 0.770212
vt 0.431571 0.852155
vt 0.513514 0.852155
vt 0.431571 0.934098
vt 0.513514 0.934098
vt 0.595457 0.606325
vt 0.595457 0.688268
vt 0.349627 0.606325
vt 0.349627 0.688268
vn 0.000000 0.000000 1.000000
vn 0.000000 0.000000 1.000000
vn 0.000000 0.000000 1.000000
vn 0.000000 0.000000 1.000000
vn 0.000000 1.000000 0.000000
vn 0.000000 1.000000 0.000000
vn 0.000000 1.000000 0.000000
vn 0.000000 1.000000 0.000000
vn 0.000000 0.000000 -1.000000
vn 0.000000 0.000000 -1.000000
vn 0.000000 0.000000 -1.000000
vn 0.000000 0.000000 -1.000000
vn 0.000000 -1.000000 0.000000
vn 0.000000 -1.000000 0.000000
vn 0.000000 -1.000000 0.000000
vn 0.000000 -1.000000 0.000000
vn 1.000000 0.000000 0.000000
vn 1.000000 0.000000 0.000000
vn 1.000000 0.000000 0.000000
vn 1.000000 0.000000 0.000000
vn -1.000000 0.000000 0.000000
vn -1.000000 0.000000 0.000000
vn -1.000000 0.000000 0.000000
vn -1.000000 0.000000 0.000000
s 1
g pCube15
usemtl lambert13SG
f 1/1/1 2/2/2 3/3/3
f 3/3/3 2/2/2 4/4/4
s 2
f 3/3/5 4/4/6 5/5/7
f 5/5/7 4/4/6 6/6/8
s 3
f 5/5/9 6/6/10 7/7/11
f 7/7/11 6/6/10 8/8/12
s 4
f 7/7/13 8/8/14 1/9/15
f 1/9/15 8/8/14 2/10/16
s 5
f 2/2/17 8/11/18 4/4/19
f 4/4/19 8/11/18 6/12/20
s 6
f 7/13/21 1/1/22 5/14/23
f 5/14/23 1/1/22 3/3/24
g default
v 0.752513 2.616855 1.177705
v 0.827487 2.616855 1.177705
v 0.752513 3.954806 1.177705
v 0.827487 3.954806 1.177705
v 0.752513 3.954806 -1.177705
v 0.827487 3.954806 -1.177705
v 0.752513 2.616855 -1.177705
v 0.827487 2.616855 -1.177705
vt 0.200091 0.058082
vt 0.320184 0.058082
vt 0.200091 0.178176
vt 0.320184 0.178176
vt 0.200091 0.298270
vt 0.320184 0.298270
vt 0.200091 0.418363
vt 0.320184 0.418363
vt 0.200091 0.538457
vt 0.320184 0.538457
vt 0.440278 0.058082
vt 0.440278 0.178176
vt 0.079997 0.058082
vt 0.079997 0.178176
vn 0.000000 0.000000 1.000000
vn 0.000000 0.000000 1.000000
vn 0.000000 0.000000 1.000000
vn 0.000000 0.000000 1.000000
vn 0.000000 1.000000 0.000000
vn 0.000000 1.000000 0.000000
vn 0.000000 1.000000 0.000000
vn 0.000000 1.000000 0.000000
vn 0.000000 0.000000 -1.000000
vn 0.000000 0.000000 -1.000000
vn 0.000000 0.000000 -1.000000
vn 0.000000 0.000000 -1.000000
vn 0.000000 -1.000000 0.000000
vn 0.000000 -1.000000 0.000000
vn 0.000000 -1.000000 0.000000
vn 0.000000 -1.000000 0.000000
vn 1.000000 0.000000 0.000000
vn 1.000000 0.000000 0.000000
vn 1.000000 0.000000 0.000000
vn 1.000000 0.000000 0.000000
vn -1.000000 0.000000 0.000000
vn -1.000000 0.000000 0.000000
vn -1.000000 0.000000 0.000000
vn -1.000000 0.000000 0.000000
s 1
g pCube16
usemtl lambert13SG
f 9/15/25 10/16/26 11/17/27
f 11/17/27 10/16/26 12/18/28
s 2
f 11/17/29 12/18/30 13/19/31
f 13/19/31 12/18/30 14/20/32
s 3
f 13/19/33 14/20/34 15/21/35
f 15/21/35 14/20/34 16/22/36
s 4
f 15/21/37 16/22/38 9/23/39
f 9/23/39 16/22/38 10/24/40
s 5
f 10/16/41 16/25/42 12/18/43
f 12/18/43 16/25/42 14/26/44
s 6
f 15/27/45 9/15/46 13/28/47
f 13/28/47 9/15/46 11/17/48
g default
v 0.752513 0.109368 1.169558
v 0.827487 0.109368 1.169558
v 0.752513 2.568530 1.169558
v 0.827487 2.568530 1.169558
v 0.752513 2.568530 -1.169558
v 0.827487 2.568530 -1.169558
v 0.752513 0.109368 -1.169558
v 0.827487 0.109368 -1.169558
vt 0.200091 0.058082
vt 0.320185 0.058082
vt 0.200091 0.178176
vt 0.320185 0.178176
vt 0.200091 0.298270
vt 0.320185 0.298270
vt 0.200091 0.418363
vt 0.320185 0.418363
vt 0.200091 0.538457
vt 0.320185 0.538457
vt 0.440278 0.058082
vt 0.440278 0.178176
vt 0.079997 0.058082
vt 0.079997 0.178176
vn 0.000000 0.000000 1.000000
vn 0.000000 0.000000 1.000000
vn 0.000000 0.000000 1.000000
vn 0.000000 0.000000 1.000000
vn 0.000000 1.000000 0.000000
vn 0.000000 1.000000 0.000000
vn 0.000000 1.000000 0.000000
vn 0.000000 1.000000 0.000000
vn 0.000000 0.000000 -1.000000
vn 0.000000 0.000000 -1.000000
vn 0.000000 0.000000 -1.000000
vn 0.000000 0.000000 -1.000000
vn 0.000000 -1.000000 0.000000
vn 0.000000 -1.000000 0.000000
vn 0.000000 -1.000000 0.000000
vn 0.000000 -1.000000 0.000000
vn 1.000000 0.000000 0.000000
vn 1.000000 0.000000 0.000000
vn 1.000000 0.000000 0.000000
vn 1.000000 0.000000 0.000000
vn -1.000000 0.000000 0.000000
vn -1.000000 0.000000 0.000000
vn -1.000000 0.000000 0.000000
vn -1.000000 0.000000 0.000000
s 1
g pCube17
usemtl lambert13SG
f 17/29/49 18/30/50 19/31/51
f 19/31/51 18/30/50 20/32/52
s 2
f 19/31/53 20/32/54 21/33/55
f 21/33/55 20/32/54 22/34/56
s 3
f 21/33/57 22/34/58 23/35/59
f 23/35/59 22/34/58 24/36/60
s 4
f 23/35/61 24/36/62 17/37/63
f 17/37/63 24/36/62 18/38/64
s 5
f 18/30/65 24/39/66 20/32/67
f 20/32/67 24/39/66 22/40/68
s 6
f 23/41/69 17/29/70 21/42/71
f 21/42/71 17/29/70 19/31/72
g default
v 0.599735 0.983666 -0.851002
v 1.045589 0.983755 -0.851002
v 0.940922 1.136007 -0.851002
v 0.940922 2.331325 -0.851002
v 0.702654 2.483666 -0.851002
v 1.045589 2.483666 -0.851002
v 0.702654 2.483666 -1.051002
v 1.045589 2.483666 -1.051002
v 0.940922 2.331325 -1.051002
v 1.045589 0.983755 -1.051002
v 0.940922 1.136007 -1.051002
v 0.599735 0.983666 -1.051002
vt 0.451932 0.713718
vt 0.489971 0.723228
vt 0.451932 0.726398
vt 0.451932 0.739078
vt 0.451932 0.751758
vt 0.489971 0.751758
vt 0.451932 0.789798
vt 0.489971 0.789798
vt 0.451932 0.802477
vt 0.489971 0.818327
vt 0.451932 0.815157
vt 0.451932 0.827837
vt 0.451932 0.865877
vt 0.489971 0.865877
vt 0.528011 0.723228
vt 0.528011 0.751758
vt 0.413892 0.713718
vt 0.413892 0.726398
vt 0.413892 0.739078
vt 0.413892 0.751758
vn 0.000000 0.000000 1.000000
vn 0.000000 0.000000 1.000000
vn 0.000000 0.000000 1.000000
vn 0.000000 0.000000 1.000000
vn 0.000000 0.000000 1.000000
vn 0.000000 0.000000 1.000000
vn 0.000000 1.000000 0.000000
vn 0.000000 1.000000 0.000000
vn 0.000000 1.000000 0.000000
vn 0.000000 1.000000 0.000000
vn 0.000000 0.000000 -1.000000
vn 0.000000 0.000000 -1.000000
vn 0.000000 0.000000 -1.000000
vn 0.000000 0.000000 -1.000000
vn 0.000000 0.000000 -1.000000
vn 0.000000 0.000000 -1.000000
vn 0.000200 -1.000000 0.000000
vn 0.958552 -0.284916 0.000000
vn 0.000200 -1.000000 0.000000
vn 0.958552 -0.284916 0.000000
vn 1.000000 0.000000 0.000000
vn 1.000000 0.000000 0.000000
vn -0.407708 0.913112 0.000000
vn -0.407708 0.913112 0.000000
vn -0.969415 0.245427 0.000000
vn -0.969415 0.245427 0.000000
vn -0.984728 -0.174101 0.000000
vn -0.984728 -0.174101 0.000000
vn -0.538677 -0.842512 0.000000
vn -0.538677 -0.842512 0.000000
s 1
g pCube18
usemtl lambert13SG
f 25/43/73 26/44/74 27/45/75
f 27/45/75 26/44/74 28/46/76
f 26/44/74 30/48/77 28/46/76
f 28/46/76 30/48/77 29/47/78
s 2
f 29/47/79 30/48/80 31/49/81
f 31/49/81 30/48/80 32/50/82
s 3
f 31/49/83 32/50/84 33/51/85
f 33/51/85 32/50/84 34/52/86
f 33/51/85 34/52/86 35/53/87
f 35/53/87 34/52/86 36/54/88
s 4
f 36/54/89 34/52/90 25/55/91
f 25/55/91 34/52/90 26/56/92
f 26/44/92 34/57/90 30/48/93
f 30/48/93 34/57/90 32/58/94
s 5
f 36/59/95 25/43/96 35/60/97
f 35/60/97 25/43/96 27/45/98
f 35/60/97 27/45/98 33/61/99
f 33/61/99 27/45/98 28/46/100
f 33/61/99 28/46/100 31/62/101
f 31/62/101 28/46/100 29/47/102
g default
v 0.599735 2.769372 -0.851002
v 1.045589 2.769461 -0.851002
v 0.940922 2.921713 -0.851002
v 0.940922 3.622737 -0.851002
v 0.702654 3.775078 -0.851002
v 1.045589 3.775078 -0.851002
v 0.702654 3.775078 -1.051002
v 1.045589 3.775078 -1.051002
v 0.940922 3.622737 -1.051002
v 1.045589 2.769461 -1.051002
v 0.940922 2.921713 -1.051002
v 0.599735 2.769372 -1.051002
vt 0.451932 0.713718
vt 0.489971 0.723228
vt 0.451932 0.726398
vt 0.451932 0.739078
vt 0.451932 0.751758
vt 0.489971 0.751758
vt 0.451932 0.789798
vt 0.489971 0.789798
vt 0.451932 0.802477
vt 0.489971 0.818327
vt 0.451932 0.815157
vt 0.451932 0.827837
vt 0.451932 0.865877
vt 0.489971 0.865877
vt 0.528011 0.723228
vt 0.528011 0.751758
vt 0.413892 0.713718
vt 0.413892 0.726398
vt 0.413892 0.739078
vt 0.413892 0.751758
vn 0.000000 0.000000 1.000000
vn 0.000000 0.000000 1.000000
vn 0.000000 0.000000 1.000000
vn 0.000000 0.000000 1.000000
vn 0.000000 0.000000 1.000000
vn 0.000000 0.000000 1.000000
vn 0.000000 1.000000 0.000000
vn 0.000000 1.000000 0.000000
vn 0.000000 1.000000 0.000000
vn 0.000000 1.000000 0.000000
vn 0.000000 0.000000 -1.000000
vn 0.000000 0.000000 -1.000000
vn 0.000000 0.000000 -1.000000
vn 0.000000 0.000000 -1.000000
vn 0.000000 0.000000 -1.000000
vn 0.000000 0.000000 -1.000000
vn 0.000200 -1.000000 0.000000
vn 0.914191 -0.405283 0.000000
vn 0.000200 -1.000000 0.000000
vn 0.914191 -0.405283 0.000000
vn 1.000000 0.000000 0.000000
vn 1.000000 0.000000 0.000000
vn -0.407708 0.913112 0.000000
vn -0.407708 0.913112 0.000000
vn -0.928536 0.371241 0.000000
vn -0.928536 0.371241 0.000000
vn -0.963162 -0.268924 0.000000
vn -0.963161 -0.268924 0.000000
vn -0.538677 -0.842512 0.000000
vn -0.538677 -0.842512 0.000000
s 1
g pCube19
usemtl lambert13SG
f 37/63/103 38/64/104 39/65/105
f 39/65/105 38/64/104 40/66/106
f 38/64/104 42/68/107 40/66/106
f 40/66/106 42/68/107 41/67/108
s 2
f 41/67/109 42/68/110 43/69/111
f 43/69/111 42/68/110 44/70/112
s 3
f 43/69/113 44/70/114 45/71/115
f 45/71/115 44/70/114 46/72/116
f 45/71/115 46/72/116 47/73/117
f 47/73/117 46/72/116 48/74/118
s 4
f 48/74/119 46/72/120 37/75/121
f 37/75/121 46/72/120 38/76/122
f 38/64/122 46/77/120 42/68/123
f 42/68/123 46/77/120 44/78/124
s 5
f 48/79/125 37/63/126 47/80/127
f 47/80/127 37/63/126 39/65/128
f 47/80/127 39/65/128 45/81/129
f 45/81/129 39/65/128 40/66/130
f 45/81/129 40/66/130 43/82/131
f 43/82/131 40/66/130 41/67/132
g default
v -0.750000 0.000000 1.250000
v 0.750000 0.000000 1.250000
v -0.750000 4.000000 1.250000
v 0.750000 4.000000 1.250000
v -0.750000 4.000000 -1.250000
v 0.750000 4.000000 -1.250000
v -0.750000 0.000000 -1.250000
v 0.750000 0.000000 -1.250000
vt 0.431571 0.606325
vt 0.513514 0.606325
vt 0.431571 0.688268
vt 0.513514 0.688268
vt 0.431571 0.770212
vt 0.513514 0.770212
vt 0.431571 0.852155
vt 0.513514 0.852155
vt 0.431571 0.934098
vt 0.513514 0.934098
vt 0.595457 0.606325
vt 0.595457 0.688268
vt 0.349627 0.606325
vt 0.349627 0.688268
vn 0.000000 0.000000 1.000000
vn 0.000000 0.000000 1.000000
vn 0.000000 0.000000 1.000000
vn 0.000000 0.000000 1.000000
vn 0.000000 1.000000 0.000000
vn 0.000000 1.000000 0.000000
vn 0.000000 1.000000 0.000000
vn 0.000000 1.000000 0.000000
vn 0.000000 0.000000 -1.000000
vn 0.000000 0.000000 -1.000000
vn 0.000000 0.000000 -1.000000
vn 0.000000 0.000000 -1.000000
vn 0.000000 -1.000000 0.000000
vn 0.000000 -1.000000 0.000000
vn 0.000000 -1.000000 0.000000
vn 0.000000 -1.000000 0.000000
vn 1.000000 0.000000 0.000000
vn 1.000000 0.000000 0.000000
vn 1.000000 0.000000 0.000000
vn 1.000000 0.000000 0.000000
vn -1.000000 0.000000 0.000000
vn -1.000000 0.000000 0.000000
vn -1.000000 0.000000 0.000000
vn -1.000000 0.000000 0.000000
s 1
g pCube15
f 49/83/133 50/84/134 51/85/135
f 51/85/135 50/84/134 52/86/136
s 2
f 51/85/137 52/86/138 53/87/139
f 53/87/139 52/86/138 54/88/140
s 3
f 53/87/141 54/88/142 55/89/143
f 55/89/143 54/88/142 56/90/144
s 4
f 55/89/145 56/90/146 49/91/147
f 49/91/147 56/90/146 50/92/148
s 5
f 50/84/149 56/93/150 52/86/151
f 52/86/151 56/93/150 54/94/152
s 6
f 55/95/153 49/83/154 53/96/155
f 53/96/155 49/83/154 51/85/156
g default
v 0.752513 2.616855 1.177705
v 0.827487 2.616855 1.177705
v 0.752513 3.954806 1.177705
v 0.827487 3.954806 1.177705
v 0.752513 3.954806 -1.177705
v 0.827487 3.954806 -1.177705
v 0.752513 2.616855 -1.177705
v 0.827487 2.616855 -1.177705
vt 0.200091 0.058082
vt 0.320184 0.058082
vt 0.200091 0.178176
vt 0.320184 0.178176
vt 0.200091 0.298270
vt 0.320184 0.298270
vt 0.200091 0.418363
vt 0.320184 0.418363
vt 0.200091 0.538457
vt 0.320184 0.538457
vt 0.440278 0.058082
vt 0.440278 0.178176
vt 0.079997 0.058082
vt 0.079997 0.178176
vn 0.000000 0.000000 1.000000
vn 0.000000 0.000000 1.000000
vn 0.000000 0.000000 1.000000
vn 0.000000 0.000000 1.000000
vn 0.000000 1.000000 0.000000
vn 0.000000 1.000000 0.000000
vn 0.000000 1.000000 0.000000
vn 0.000000 1.000000 0.000000
vn 0.000000 0.000000 -1.000000
vn 0.000000 0.000000 -1.000000
vn 0.000000 0.000000 -1.000000
vn 0.000000 0.000000 -1.000000
vn 0.000000 -1.000000 0.000000
vn 0.000000 -1.000000 0.000000
vn 0.000000 -1.000000 0.000000
vn 0.000000 -1.000000 0.000000
vn 1.000000 0.000000 0.000000
vn 1.000000 0.000000 0.000000
vn 1.000000 0.000000 0.000000
vn 1.000000 0.000000 0.000000
vn -1.000000 0.000000 0.000000
vn -1.000000 0.000000 0.000000
vn -1.000000 0.000000 0.000000
vn -1.000000 0.000000 0.000000
s 1
g pCube16
f 57/97/157 58/98/158 59/99/159
f 59/99/159 58/98/158 60/100/160
s 2
f 59/99/161 60/100/162 61/101/163
f 61/101/163 60/100/162 62/102/164
s 3
f 61/101/165 62/102/166 63/103/167
f 63/103/167 62/102/166 64/104/168
s 4
f 63/103/169 64/104/170 57/105/171
f 57/105/171 64/104/170 58/106/172
s 5
f 58/98/173 64/107/174 60/100/175
f 60/100/175 64/107/174 62/108/176
s 6
f 63/109/177 57/97/178 61/110/179
f 61/110/179 57/97/178 59/99/180
g default
v 0.752513 0.109368 1.169558
v 0.827487 0.109368 1.169558
v 0.752513 2.568530 1.169558
v 0.827487 2.568530 1.169558
v 0.752513 2.568530 -1.169558
v 0.827487 2.568530 -1.169558
v 0.752513 0.109368 -1.169558
v 0.827487 0.109368 -1.169558
vt 0.200091 0.058082
vt 0.320185 0.058082
vt 0.200091 0.178176
vt 0.320185 0.178176
vt 0.200091 0.298270
vt 0.320185 0.298270
vt 0.200091 0.418363
vt 0.320185 0.418363
vt 0.200091 0.538457
vt 0.320185 0.538457
vt 0.440278 0.058082
vt 0.440278 0.178176
vt 0.079997 0.058082
vt 0.079997 0.178176
vn 0.000000 0.000000 1.000000
vn 0.000000 0.000000 1.000000
vn 0.000000 0.000000 1.000000
vn 0.000000 0.000000 1.000000
vn 0.000000 1.000000 0.000000
vn 0.000000 1.000000 0.000000
vn 0.000000 1.000000 0.000000
vn 0.000000 1.000000 0.000000
vn 0.000000 0.000000 -1.000000
vn 0.000000 0.000000 -1.000000
vn 0.000000 0.000000 -1.000000
vn 0.000000 0.000000 -1.000000
vn 0.000000 -1.000000 0.000000
vn 0.000000 -1.000000 0.000000
vn 0.000000 -1.000000 0.000000
vn 0.000000 -1.000000 0.000000
vn 1.000000 0.000000 0.000000
vn 1.000000 0.000000 0.000000
vn 1.000000 0.000000 0.000000
vn 1.000000 0.000000 0.000000
vn -1.000000 0.000000 0.000000
vn -1.000000 0.000000 0.000000
vn -1.000000 0.000000 0.000000
vn -1.000000 0.000000 0.000000
s 1
g pCube17
f 65/111/181 66/112/182 67/113/183
f 67/113/183 66/112/182 68/114/184
s 2
f 67/113/185 68/114/186 69/115/187
f 69/115/187 68/114/186 70/116/188
s 3
f 69/115/189 70/116/190 71/117/191
f 71/117/191 70/116/190 72/118/192
s 4
f 71/117/193 72/118/194 65/119/195
f 65/119/195 72/118/194 66/120/196
s 5
f 66/112/197 72/121/198 68/114/199
f 68/114/199 72/121/198 70/122/200
s 6
f 71/123/201 65/111/202 69/124/203
f 69/124/203 65/111/202 67/113/204
g default
v 0.599735 0.983666 -0.851002
v 1.045589 0.983755 -0.851002
v 0.940922 1.136007 -0.851002
v 0.940922 2.331325 -0.851002
v 0.702654 2.483666 -0.851002
v 1.045589 2.483666 -0.851002
v 0.702654 2.483666 -1.051002
v 1.045589 2.483666 -1.051002
v 0.940922 2.331325 -1.051002
v 1.045589 0.983755 -1.051002
v 0.940922 1.136007 -1.051002
v 0.599735 0.983666 -1.051002
vt 0.451932 0.713718
vt 0.489971 0.723228
vt 0.451932 0.726398
vt 0.451932 0.739078
vt 0.451932 0.751758
vt 0.489971 0.751758
vt 0.451932 0.789798
vt 0.489971 0.789798
vt 0.451932 0.802477
vt 0.489971 0.818327
vt 0.451932 0.815157
vt 0.451932 0.827837
vt 0.451932 0.865877
vt 0.489971 0.865877
vt 0.528011 0.723228
vt 0.528011 0.751758
vt 0.413892 0.713718
vt 0.413892 0.726398
vt 0.413892 0.739078
vt 0.413892 0.751758
vn 0.000000 0.000000 1.000000
vn 0.000000 0.000000 1.000000
vn 0.000000 0.000000 1.000000
vn 0.000000 0.000000 1.000000
vn 0.000000 0.000000 1.000000
vn 0.000000 0.000000 1.000000
vn 0.000000 1.000000 0.000000
vn 0.000000 1.000000 0.000000
vn 0.000000 1.000000 0.000000
vn 0.000000 1.000000 0.000000
vn 0.000000 0.000000 -1.000000
vn 0.000000 0.000000 -1.000000
vn 0.000000 0.000000 -1.000000
vn 0.000000 0.000000 -1.000000
vn 0.000000 0.000000 -1.000000
vn 0.000000 0.000000 -1.000000
vn 0.000200 -1.000000 0.000000
vn 0.958552 -0.284916 0.000000
vn 0.000200 -1.000000 0.000000
vn 0.958552 -0.284916 0.000000
vn 1.000000 0.000000 0.000000
vn 1.000000 0.000000 0.000000
vn -0.407708 0.913112 0.000000
vn -0.407708 0.913112 0.000000
vn -0.969415 0.245427 0.000000
vn -0.969415 0.245427 0.000000
vn -0.984728 -0.174101 0.000000
vn -0.984728 -0.174101 0.000000
vn -0.538677 -0.842512 0.000000
vn -0.538677 -0.842512 0.000000
s 1
g pCube18
f 73/125/205 74/126/206 75/127/207
f 75/127/207 74/126/206 76/128/208
f 74/126/206 78/130/209 76/128/208
f 76/128/208 78/130/209 77/129/210
s 2
f 77/129/211 78/130/212 79/131/213
f 79/131/213 78/130/212 80/132/214
s 3
f 79/131/215 80/132/216 81/133/217
f 81/133/217 80/132/216 82/134/218
f 81/133/217 82/134/218 83/135/219
f 83/135/219 82/134/218 84/136/220
s 4
f 84/136/221 82/134/222 73/137/223
f 73/137/223 82/134/222 74/138/224
f 74/126/224 82/139/222 78/130/225
f 78/130/225 82/139/222 80/140/226
s 5
f 84/141/227 73/125/228 83/142/229
f 83/142/229 73/125/228 75/127/230
f 83/142/229 75/127/230 81/143/231
f 81/143/231 75/127/230 76/128/232
f 81/143/231 76/128/232 79/144/233
f 79/144/233 76/128/232 77/129/234
g default
v 0.599735 2.769372 -0.851002
v 1.045589 2.769461 -0.851002
v 0.940922 2.921713 -0.851002
v 0.940922 3.622737 -0.851002
v 0.702654 3.775078 -0.851002
v 1.045589 3.775078 -0.851002
v 0.702654 3.775078 -1.051002
v 1.045589 3.775078 -1.051002
v 0.940922 3.622737 -1.051002
v 1.045589 2.769461 -1.051002
v 0.940922 2.921713 -1.051002
v 0.599735 2.769372 -1.051002
vt 0.451932 0.713718
vt 0.489971 0.723228
vt 0.451932 0.726398
vt 0.451932 0.739078
vt 0.451932 0.751758
vt 0.489971 0.751758
vt 0.451932 0.789798
vt 0.489971 0.789798
vt 0.451932 0.802477
vt 0.489971 0.818327
vt 0.451932 0.815157
vt 0.451932 0.827837
vt 0.451932 0.865877
vt 0.489971 0.865877
vt 0.528011 0.723228
vt 0.528011 0.751758
vt 0.413892 0.713718
vt 0.413892 0.726398
vt 0.413892 0.739078
vt 0.413892 0.751758
vn 0.000000 0.000000 1.000000
vn 0.000000 0.000000 1.000000
vn 0.000000 0.000000 1.000000
vn 0.000000 0.000000 1.000000
vn 0.000000 0.000000 1.000000
vn 0.000000 0.000000 1.000000
vn 0.000000 1.000000 0.000000
vn 0.000000 1.000000 0.000000
vn 0.000000 1.000000 0.000000
vn 0.000000 1.000000 0.000000
vn 0.000000 0.000000 -1.000000
vn 0.000000 0.000000 -1.000000
vn 0.000000 0.000000 -1.000000
vn 0.000000 0.000000 -1.000000
vn 0.000000 0.000000 -1.000000
vn 0.000000 0.000000 -1.000000
vn 0.000200 -1.000000 0.000000
vn 0.914191 -0.405283 0.000000
vn 0.000200 -1.000000 0.000000
vn 0.914191 -0.405283 0.000000
vn 1.000000 0.000000 0.000000
vn 1.000000 0.000000 0.000000
vn -0.407708 0.913112 0.000000
vn -0.407708 0.913112 0.000000
vn -0.928536 0.371241 0.000000
vn -0.928536 0.371241 0.000000
vn -0.963162 -0.268924 0.000000
vn -0.963161 -0.268924 0.000000
vn -0.538677 -0.842512 0.000000
vn -0.538677 -0.842512 0.000000
s 1
g pCube19
f 85/145/235 86/146/236 87/147/237
f 87/147/237 86/146/236 88/148/238
f 86/146/236 90/150/239 88/148/238
f 88/148/238 90/150/239 89/149/240
s 2
f 89/149/241 90/150/242 91/151/243
f 91/151/243 90/150/242 92/152/244
s 3
f 91/151/245 92/152/246 93/153/247
f 93/153/247 92/152/246 94/154/248
f 93/153/247 94/154/248 95/155/249
f 95/155/249 94/154/248 96/156/250
s 4
f 96/156/251 94/154/252 85/157/253
f 85/157/253 94/154/252 86/158/254
f 86/146/254 94/159/252 90/150/255
f 90/150/255 94/159/252 92/160/256
s 5
f 96/161/257 85/145/258 95/162/259
f 95/162/259 85/145/258 87/147/260
f 95/162/259 87/147/260 93/163/261
f 93/163/261 87/147/260 88/148/262
f 93/163/261 88/148/262 91/164/263
f 91/164/263 88/148/262 89/149/264
g default
v 0.599735 2.769372 -0.851002
v 1.045589 2.769461 -0.851002
v 0.940922 2.921713 -0.851002
v 0.940922 3.622737 -0.851002
v 0.702654 3.775078 -0.851002
v 1.045589 3.775078 -0.851002
v 0.702654 3.775078 -1.051002
v 1.045589 3.775078 -1.051002
v 0.940922 3.622737 -1.051002
v 1.045589 2.769461 -1.051002
v 0.940922 2.921713 -1.051002
v 0.599735 2.769372 -1.051002
vt 0.451932 0.713718
vt 0.489971 0.723228
vt 0.451932 0.726398
vt 0.451932 0.739078
vt 0.451932 0.751758
vt 0.489971 0.751758
vt 0.451932 0.789798
vt 0.489971 0.789798
vt 0.451932 0.802477
vt 0.489971 0.818327
vt 0.451932 0.815157
vt 0.451932 0.827837
vt 0.451932 0.865877
vt 0.489971 0.865877
vt 0.528011 0.723228
vt 0.528011 0.751758
vt 0.413892 0.713718
vt 0.413892 0.726398
vt 0.413892 0.739078
vt 0.413892 0.751758
vn 0.000000 0.000000 1.000000
vn 0.000000 0.000000 1.000000
vn 0.000000 0.000000 1.000000
vn 0.000000 0.000000 1.000000
vn 0.000000 0.000000 1.000000
vn 0.000000 0.000000 1.000000
vn 0.000000 1.000000 0.000000
vn 0.000000 1.000000 0.000000
vn 0.000000 1.000000 0.000000
vn 0.000000 1.000000 0.000000
vn 0.000000 0.000000 -1.000000
vn 0.000000 0.000000 -1.000000
vn 0.000000 0.000000 -1.000000
vn 0.000000 0.000000 -1.000000
vn 0.000000 0.000000 -1.000000
vn 0.000000 0.000000 -1.000000
vn 0.000200 -1.000000 0.000000
vn 0.914191 -0.405283 0.000000
vn 0.000200 -1.000000 0.000000
vn 0.914191 -0.405283 0.000000
vn 1.000000 0.000000 0.000000
vn 1.000000 0.000000 0.000000
vn -0.407708 0.913112 0.000000
vn -0.407708 0.913112 0.000000
vn -0.928536 0.371241 0.000000
vn -0.928536 0.371241 0.000000
vn -0.963162 -0.268924 0.000000
vn -0.963161 -0.268924 0.000000
vn -0.538677 -0.842512 0.000000
vn -0.538677 -0.842512 0.000000
s 1
g pCube19
f 97/165/265 98/166/266 99/167/267
f 99/167/267 98/166/266 100/168/268
f 98/166/266 102/170/269 100/168/268
f 100/168/268 102/170/269 101/169/270
s 2
f 101/169/271 102/170/272 103/171/273
f 103/171/273 102/170/272 104/172/274
s 3
f 103/171/275 104/172/276 105/173/277
f 105/173/277 104/172/276 106/174/278
f 105/173/277 106/174/278 107/175/279
f 107/175/279 106/174/278 108/176/280
s 4
f 108/176/281 106/174/282 97/177/283
f 97/177/283 106/174/282 98/178/284
f 98/166/284 106/179/282 102/170/285
f 102/170/285 106/179/282 104/180/286
s 5
f 108/181/287 97/165/288 107/182/289
f 107/182/289 97/165/288 99/167/290
f 107/182/289 99/167/290 105/183/291
f 105/183/291 99/167/290 100/168/292
f 105/183/291 100/168/292 103/184/293
f 103/184/293 100/168/292 101/169/294
