# This file uses centimeters as units for non-parametric coordinates.

mtllib stairshelf.mtl
g default
v -0.166287 0.332574 -0.498862
v 0.166287 0.332574 -0.498862
v -0.166287 0.665149 -0.498862
v 0.166287 0.665149 -0.498862
v -0.166287 0.665149 -0.831436
v 0.166287 0.665149 -0.831436
v -0.166287 0.332574 -0.831436
v 0.166287 0.332574 -0.831436
v 0.166287 0.354746 -0.809264
v 0.166287 0.354746 -0.521033
v 0.166287 0.642977 -0.809264
v 0.166287 0.642977 -0.521033
v -0.130718 0.354746 -0.809264
v -0.130718 0.354746 -0.521033
v -0.130718 0.642977 -0.809264
v -0.130718 0.642977 -0.521033
v -0.166287 0.000000 -0.498862
v 0.166287 0.000000 -0.498862
v -0.166287 0.332574 -0.498862
v 0.166287 0.332574 -0.498862
v -0.166287 0.332574 -0.831436
v 0.166287 0.332574 -0.831436
v -0.166287 0.000000 -0.831436
v 0.166287 0.000000 -0.831436
v 0.166287 0.022172 -0.809264
v 0.166287 0.022172 -0.521033
v 0.166287 0.310403 -0.809264
v 0.166287 0.310403 -0.521033
v -0.130718 0.022172 -0.809264
v -0.130718 0.022172 -0.521033
v -0.130718 0.310403 -0.809264
v -0.130718 0.310403 -0.521033
v -0.166287 0.665149 -0.498862
v 0.166287 0.665149 -0.498862
v -0.166287 0.997723 -0.498862
v 0.166287 0.997723 -0.498862
v -0.166287 0.997723 -0.831436
v 0.166287 0.997723 -0.831436
v -0.166287 0.665149 -0.831436
v 0.166287 0.665149 -0.831436
v 0.166287 0.687321 -0.809264
v 0.166287 0.687321 -0.521033
v 0.166287 0.975552 -0.809264
v 0.166287 0.975552 -0.521033
v -0.130718 0.687321 -0.809264
v -0.130718 0.687321 -0.521033
v -0.130718 0.975552 -0.809264
v -0.130718 0.975552 -0.521033
v -0.166287 0.000000 -0.166287
v 0.166287 0.000000 -0.166287
v -0.166287 0.332574 -0.166287
v 0.166287 0.332574 -0.166287
v -0.166287 0.332574 -0.498862
v 0.166287 0.332574 -0.498862
v -0.166287 0.000000 -0.498862
v 0.166287 0.000000 -0.498862
v 0.166287 0.022172 -0.476690
v 0.166287 0.022172 -0.188459
v 0.166287 0.310403 -0.476690
v 0.166287 0.310403 -0.188459
v -0.130718 0.022172 -0.476690
v -0.130718 0.022172 -0.188459
v -0.130718 0.310403 -0.476690
v -0.130718 0.310403 -0.188459
v -0.166287 0.332574 -0.166287
v 0.166287 0.332574 -0.166287
v -0.166287 0.665149 -0.166287
v 0.166287 0.665149 -0.166287
v -0.166287 0.665149 -0.498862
v 0.166287 0.665149 -0.498862
v -0.166287 0.332574 -0.498862
v 0.166287 0.332574 -0.498862
v 0.166287 0.354746 -0.476690
v 0.166287 0.354746 -0.188459
v 0.166287 0.642977 -0.476690
v 0.166287 0.642977 -0.188459
v -0.130718 0.354746 -0.476690
v -0.130718 0.354746 -0.188459
v -0.130718 0.642977 -0.476690
v -0.130718 0.642977 -0.188459
v -0.166287 0.000000 0.166287
v 0.166287 0.000000 0.166287
v -0.166287 0.332574 0.166287
v 0.166287 0.332574 0.166287
v -0.166287 0.332574 -0.166287
v 0.166287 0.332574 -0.166287
v -0.166287 0.000000 -0.166287
v 0.166287 0.000000 -0.166287
v 0.166287 0.022172 -0.144116
v 0.166287 0.022172 0.144116
v 0.166287 0.310403 -0.144116
v 0.166287 0.310403 0.144116
v -0.130718 0.022172 -0.144116
v -0.130718 0.022172 0.144116
v -0.130718 0.310403 -0.144116
v -0.130718 0.310403 0.144116
vt 0.375000 0.000000
vt 0.625000 0.000000
vt 0.375000 0.250000
vt 0.625000 0.250000
vt 0.375000 0.500000
vt 0.625000 0.500000
vt 0.375000 0.750000
vt 0.625000 0.750000
vt 0.375000 1.000000
vt 0.625000 1.000000
vt 0.875000 0.000000
vt 0.875000 0.250000
vt 0.125000 0.000000
vt 0.125000 0.250000
vt 0.625000 0.000000
vt 0.875000 0.000000
vt 0.875000 0.250000
vt 0.625000 0.250000
vt 0.625000 0.000000
vt 0.875000 0.000000
vt 0.875000 0.250000
vt 0.625000 0.250000
vt 0.375000 0.000000
vt 0.625000 0.000000
vt 0.625000 0.250000
vt 0.375000 0.250000
vt 0.625000 0.500000
vt 0.375000 0.500000
vt 0.625000 0.750000
vt 0.375000 0.750000
vt 0.625000 1.000000
vt 0.375000 1.000000
vt 0.625000 0.000000
vt 0.875000 0.000000
vt 0.875000 0.250000
vt 0.625000 0.250000
vt 0.125000 0.000000
vt 0.125000 0.250000
vt 0.875000 0.000000
vt 0.875000 0.000000
vt 0.625000 0.000000
vt 0.875000 0.250000
vt 0.875000 0.250000
vt 0.625000 0.250000
vt 0.375000 0.000000
vt 0.625000 0.000000
vt 0.625000 0.250000
vt 0.375000 0.250000
vt 0.625000 0.500000
vt 0.375000 0.500000
vt 0.625000 0.750000
vt 0.375000 0.750000
vt 0.625000 1.000000
vt 0.375000 1.000000
vt 0.625000 0.000000
vt 0.875000 0.000000
vt 0.875000 0.250000
vt 0.625000 0.250000
vt 0.125000 0.000000
vt 0.125000 0.250000
vt 0.875000 0.000000
vt 0.875000 0.000000
vt 0.625000 0.000000
vt 0.875000 0.250000
vt 0.875000 0.250000
vt 0.625000 0.250000
vt 0.375000 0.000000
vt 0.625000 0.000000
vt 0.625000 0.250000
vt 0.375000 0.250000
vt 0.625000 0.500000
vt 0.375000 0.500000
vt 0.625000 0.750000
vt 0.375000 0.750000
vt 0.625000 1.000000
vt 0.375000 1.000000
vt 0.625000 0.000000
vt 0.875000 0.000000
vt 0.875000 0.250000
vt 0.625000 0.250000
vt 0.125000 0.000000
vt 0.125000 0.250000
vt 0.875000 0.000000
vt 0.875000 0.000000
vt 0.625000 0.000000
vt 0.875000 0.250000
vt 0.875000 0.250000
vt 0.625000 0.250000
vt 0.375000 0.000000
vt 0.625000 0.000000
vt 0.625000 0.250000
vt 0.375000 0.250000
vt 0.625000 0.500000
vt 0.375000 0.500000
vt 0.625000 0.750000
vt 0.375000 0.750000
vt 0.625000 1.000000
vt 0.375000 1.000000
vt 0.625000 0.000000
vt 0.875000 0.000000
vt 0.875000 0.250000
vt 0.625000 0.250000
vt 0.125000 0.000000
vt 0.125000 0.250000
vt 0.875000 0.000000
vt 0.875000 0.000000
vt 0.625000 0.000000
vt 0.875000 0.250000
vt 0.875000 0.250000
vt 0.625000 0.250000
vt 0.375000 0.000000
vt 0.625000 0.000000
vt 0.625000 0.250000
vt 0.375000 0.250000
vt 0.625000 0.500000
vt 0.375000 0.500000
vt 0.625000 0.750000
vt 0.375000 0.750000
vt 0.625000 1.000000
vt 0.375000 1.000000
vt 0.625000 0.000000
vt 0.875000 0.000000
vt 0.875000 0.250000
vt 0.625000 0.250000
vt 0.125000 0.000000
vt 0.125000 0.250000
vt 0.875000 0.000000
vt 0.875000 0.000000
vt 0.625000 0.000000
vt 0.875000 0.250000
vt 0.875000 0.250000
vt 0.625000 0.250000
vn 0.000000 0.000000 1.000000
vn 0.000000 0.000000 1.000000
vn 0.000000 0.000000 1.000000
vn 0.000000 0.000000 1.000000
vn 0.000000 1.000000 0.000000
vn 0.000000 1.000000 0.000000
vn 0.000000 1.000000 0.000000
vn 0.000000 1.000000 0.000000
vn 0.000000 0.000000 -1.000000
vn 0.000000 0.000000 -1.000000
vn 0.000000 0.000000 -1.000000
vn 0.000000 0.000000 -1.000000
vn 0.000000 -1.000000 0.000000
vn 0.000000 -1.000000 0.000000
vn 0.000000 -1.000000 0.000000
vn 0.000000 -1.000000 0.000000
vn 1.000000 0.000000 0.000000
vn 1.000000 0.000000 0.000000
vn 1.000000 0.000000 0.000000
vn 1.000000 0.000000 0.000000
vn -1.000000 0.000000 0.000000
vn -1.000000 0.000000 0.000000
vn -1.000000 0.000000 0.000000
vn -1.000000 0.000000 0.000000
vn 1.000000 -0.000000 0.000000
vn 1.000000 -0.000000 0.000000
vn 1.000000 -0.000000 0.000000
vn 1.000000 -0.000000 0.000000
vn 1.000000 -0.000000 0.000000
vn 1.000000 -0.000000 0.000000
vn 1.000000 -0.000000 0.000000
vn 1.000000 -0.000000 0.000000
vn 0.000000 1.000000 0.000000
vn 0.000000 1.000000 0.000000
vn 0.000000 1.000000 0.000000
vn 0.000000 1.000000 0.000000
vn 0.000000 0.000000 1.000000
vn 0.000000 0.000000 1.000000
vn 0.000000 0.000000 1.000000
vn 0.000000 0.000000 1.000000
vn 0.000000 -1.000000 0.000000
vn 0.000000 -1.000000 0.000000
vn 0.000000 -1.000000 0.000000
vn 0.000000 -1.000000 0.000000
vn 0.000000 0.000000 -1.000000
vn 0.000000 0.000000 -1.000000
vn 0.000000 0.000000 -1.000000
vn 0.000000 0.000000 -1.000000
vn 0.000000 0.000000 1.000000
vn 0.000000 0.000000 1.000000
vn 0.000000 0.000000 1.000000
vn 0.000000 0.000000 1.000000
vn 0.000000 1.000000 0.000000
vn 0.000000 1.000000 0.000000
vn 0.000000 1.000000 0.000000
vn 0.000000 1.000000 0.000000
vn 0.000000 0.000000 -1.000000
vn 0.000000 0.000000 -1.000000
vn 0.000000 0.000000 -1.000000
vn 0.000000 0.000000 -1.000000
vn 0.000000 -1.000000 0.000000
vn 0.000000 -1.000000 0.000000
vn 0.000000 -1.000000 0.000000
vn 0.000000 -1.000000 0.000000
vn 1.000000 0.000000 0.000000
vn 1.000000 0.000000 0.000000
vn 1.000000 0.000000 0.000000
vn 1.000000 0.000000 0.000000
vn -1.000000 0.000000 0.000000
vn -1.000000 0.000000 0.000000
vn -1.000000 0.000000 0.000000
vn -1.000000 0.000000 0.000000
vn 1.000000 -0.000000 0.000000
vn 1.000000 -0.000000 0.000000
vn 1.000000 -0.000000 0.000000
vn 1.000000 -0.000000 0.000000
vn 1.000000 -0.000000 0.000000
vn 1.000000 -0.000000 0.000000
vn 1.000000 -0.000000 0.000000
vn 1.000000 -0.000000 0.000000
vn 0.000000 1.000000 0.000000
vn 0.000000 1.000000 0.000000
vn 0.000000 1.000000 0.000000
vn 0.000000 1.000000 0.000000
vn 0.000000 0.000000 1.000000
vn 0.000000 0.000000 1.000000
vn 0.000000 0.000000 1.000000
vn 0.000000 0.000000 1.000000
vn 0.000000 -1.000000 0.000000
vn 0.000000 -1.000000 0.000000
vn 0.000000 -1.000000 0.000000
vn 0.000000 -1.000000 0.000000
vn 0.000000 0.000000 -1.000000
vn 0.000000 0.000000 -1.000000
vn 0.000000 0.000000 -1.000000
vn 0.000000 0.000000 -1.000000
vn 0.000000 0.000000 1.000000
vn 0.000000 0.000000 1.000000
vn 0.000000 0.000000 1.000000
vn 0.000000 0.000000 1.000000
vn 0.000000 1.000000 0.000000
vn 0.000000 1.000000 0.000000
vn 0.000000 1.000000 0.000000
vn 0.000000 1.000000 0.000000
vn 0.000000 0.000000 -1.000000
vn 0.000000 0.000000 -1.000000
vn 0.000000 0.000000 -1.000000
vn 0.000000 0.000000 -1.000000
vn 0.000000 -1.000000 0.000000
vn 0.000000 -1.000000 0.000000
vn 0.000000 -1.000000 0.000000
vn 0.000000 -1.000000 0.000000
vn 1.000000 0.000000 0.000000
vn 1.000000 0.000000 0.000000
vn 1.000000 0.000000 0.000000
vn 1.000000 0.000000 0.000000
vn -1.000000 0.000000 0.000000
vn -1.000000 0.000000 0.000000
vn -1.000000 0.000000 0.000000
vn -1.000000 0.000000 0.000000
vn 1.000000 -0.000000 0.000000
vn 1.000000 -0.000000 0.000000
vn 1.000000 -0.000000 0.000000
vn 1.000000 -0.000000 0.000000
vn 1.000000 -0.000000 0.000000
vn 1.000000 -0.000000 0.000000
vn 1.000000 -0.000000 0.000000
vn 1.000000 -0.000000 0.000000
vn 0.000000 1.000000 0.000000
vn 0.000000 1.000000 0.000000
vn 0.000000 1.000000 0.000000
vn 0.000000 1.000000 0.000000
vn 0.000000 0.000000 1.000000
vn 0.000000 0.000000 1.000000
vn 0.000000 0.000000 1.000000
vn 0.000000 0.000000 1.000000
vn 0.000000 -1.000000 0.000000
vn 0.000000 -1.000000 0.000000
vn 0.000000 -1.000000 0.000000
vn 0.000000 -1.000000 0.000000
vn 0.000000 0.000000 -1.000000
vn 0.000000 0.000000 -1.000000
vn 0.000000 0.000000 -1.000000
vn 0.000000 0.000000 -1.000000
vn 0.000000 0.000000 1.000000
vn 0.000000 0.000000 1.000000
vn 0.000000 0.000000 1.000000
vn 0.000000 0.000000 1.000000
vn 0.000000 1.000000 0.000000
vn 0.000000 1.000000 0.000000
vn 0.000000 1.000000 0.000000
vn 0.000000 1.000000 0.000000
vn 0.000000 0.000000 -1.000000
vn 0.000000 0.000000 -1.000000
vn 0.000000 0.000000 -1.000000
vn 0.000000 0.000000 -1.000000
vn 0.000000 -1.000000 0.000000
vn 0.000000 -1.000000 0.000000
vn 0.000000 -1.000000 0.000000
vn 0.000000 -1.000000 0.000000
vn 1.000000 0.000000 0.000000
vn 1.000000 0.000000 0.000000
vn 1.000000 0.000000 0.000000
vn 1.000000 0.000000 0.000000
vn -1.000000 0.000000 0.000000
vn -1.000000 0.000000 0.000000
vn -1.000000 0.000000 0.000000
vn -1.000000 0.000000 0.000000
vn 1.000000 0.000000 0.000000
vn 1.000000 0.000000 0.000000
vn 1.000000 0.000000 0.000000
vn 1.000000 0.000000 0.000000
vn 1.000000 0.000000 0.000000
vn 1.000000 0.000000 0.000000
vn 1.000000 0.000000 0.000000
vn 1.000000 0.000000 0.000000
vn 0.000000 1.000000 0.000000
vn 0.000000 1.000000 0.000000
vn 0.000000 1.000000 0.000000
vn 0.000000 1.000000 0.000000
vn 0.000000 0.000000 1.000000
vn 0.000000 0.000000 1.000000
vn 0.000000 0.000000 1.000000
vn 0.000000 0.000000 1.000000
vn 0.000000 -1.000000 0.000000
vn 0.000000 -1.000000 0.000000
vn 0.000000 -1.000000 0.000000
vn 0.000000 -1.000000 0.000000
vn 0.000000 0.000000 -1.000000
vn 0.000000 0.000000 -1.000000
vn 0.000000 0.000000 -1.000000
vn 0.000000 0.000000 -1.000000
vn 0.000000 0.000000 1.000000
vn 0.000000 0.000000 1.000000
vn 0.000000 0.000000 1.000000
vn 0.000000 0.000000 1.000000
vn 0.000000 1.000000 0.000000
vn 0.000000 1.000000 0.000000
vn 0.000000 1.000000 0.000000
vn 0.000000 1.000000 0.000000
vn 0.000000 0.000000 -1.000000
vn 0.000000 0.000000 -1.000000
vn 0.000000 0.000000 -1.000000
vn 0.000000 0.000000 -1.000000
vn 0.000000 -1.000000 0.000000
vn 0.000000 -1.000000 0.000000
vn 0.000000 -1.000000 0.000000
vn 0.000000 -1.000000 0.000000
vn 1.000000 0.000000 0.000000
vn 1.000000 0.000000 0.000000
vn 1.000000 0.000000 0.000000
vn 1.000000 0.000000 0.000000
vn -1.000000 0.000000 0.000000
vn -1.000000 0.000000 0.000000
vn -1.000000 0.000000 0.000000
vn -1.000000 0.000000 0.000000
vn 1.000000 0.000000 0.000000
vn 1.000000 0.000000 0.000000
vn 1.000000 0.000000 0.000000
vn 1.000000 0.000000 0.000000
vn 1.000000 0.000000 0.000000
vn 1.000000 0.000000 0.000000
vn 1.000000 0.000000 0.000000
vn 1.000000 0.000000 0.000000
vn 0.000000 1.000000 0.000000
vn 0.000000 1.000000 0.000000
vn 0.000000 1.000000 0.000000
vn 0.000000 1.000000 0.000000
vn 0.000000 0.000000 1.000000
vn 0.000000 0.000000 1.000000
vn 0.000000 0.000000 1.000000
vn 0.000000 0.000000 1.000000
vn 0.000000 -1.000000 0.000000
vn 0.000000 -1.000000 0.000000
vn 0.000000 -1.000000 0.000000
vn 0.000000 -1.000000 0.000000
vn 0.000000 0.000000 -1.000000
vn 0.000000 0.000000 -1.000000
vn 0.000000 0.000000 -1.000000
vn 0.000000 0.000000 -1.000000
vn 0.000000 0.000000 1.000000
vn 0.000000 0.000000 1.000000
vn 0.000000 0.000000 1.000000
vn 0.000000 0.000000 1.000000
vn 0.000000 1.000000 0.000000
vn 0.000000 1.000000 0.000000
vn 0.000000 1.000000 0.000000
vn 0.000000 1.000000 0.000000
vn 0.000000 0.000000 -1.000000
vn 0.000000 0.000000 -1.000000
vn 0.000000 0.000000 -1.000000
vn 0.000000 0.000000 -1.000000
vn 0.000000 -1.000000 0.000000
vn 0.000000 -1.000000 0.000000
vn 0.000000 -1.000000 0.000000
vn 0.000000 -1.000000 0.000000
vn 1.000000 0.000000 0.000000
vn 1.000000 0.000000 0.000000
vn 1.000000 0.000000 0.000000
vn 1.000000 0.000000 0.000000
vn -1.000000 0.000000 0.000000
vn -1.000000 0.000000 0.000000
vn -1.000000 0.000000 0.000000
vn -1.000000 0.000000 0.000000
vn 1.000000 -0.000000 0.000000
vn 1.000000 -0.000000 0.000000
vn 1.000000 -0.000000 0.000000
vn 1.000000 -0.000000 0.000000
vn 1.000000 0.000000 0.000000
vn 1.000000 0.000000 0.000000
vn 1.000000 0.000000 0.000000
vn 1.000000 0.000000 0.000000
vn 0.000000 1.000000 0.000000
vn 0.000000 1.000000 0.000000
vn 0.000000 1.000000 0.000000
vn 0.000000 1.000000 0.000000
vn 0.000000 0.000000 1.000000
vn 0.000000 0.000000 1.000000
vn 0.000000 0.000000 1.000000
vn 0.000000 0.000000 1.000000
vn 0.000000 -1.000000 0.000000
vn 0.000000 -1.000000 0.000000
vn 0.000000 -1.000000 0.000000
vn 0.000000 -1.000000 0.000000
vn 0.000000 0.000000 -1.000000
vn 0.000000 0.000000 -1.000000
vn 0.000000 0.000000 -1.000000
vn 0.000000 0.000000 -1.000000
s off
g pCube24
usemtl blinn1SG
f 1/1/1 2/2/2 4/4/3 3/3/4
f 3/3/5 4/4/6 6/6/7 5/5/8
f 5/5/9 6/6/10 8/8/11 7/7/12
f 7/7/13 8/8/14 2/10/15 1/9/16
f 14/19/17 13/20/18 15/21/19 16/22/20
f 7/13/21 1/1/22 3/3/23 5/14/24
s 1
f 2/2/25 8/11/26 9/16/27 10/15/28
f 8/11/26 6/12/29 11/17/30 9/16/27
f 6/12/29 4/4/31 12/18/32 11/17/30
f 4/4/31 2/2/25 10/15/28 12/18/32
s off
f 10/15/33 9/16/34 13/20/35 14/19/36
f 9/16/37 11/17/38 15/21/39 13/20/40
f 11/17/41 12/18/42 16/22/43 15/21/44
f 12/18/45 10/15/46 14/19/47 16/22/48
f 17/23/49 18/24/50 20/25/51 19/26/52
f 19/26/53 20/25/54 22/27/55 21/28/56
f 21/28/57 22/27/58 24/29/59 23/30/60
f 23/30/61 24/29/62 18/31/63 17/32/64
f 30/33/65 29/34/66 31/35/67 32/36/68
f 23/37/69 17/23/70 19/26/71 21/38/72
s 2
f 18/24/73 24/39/74 25/40/75 26/41/76
f 24/39/74 22/42/77 27/43/78 25/40/75
f 22/42/77 20/25/79 28/44/80 27/43/78
f 20/25/79 18/24/73 26/41/76 28/44/80
s off
f 26/41/81 25/40/82 29/34/83 30/33/84
f 25/40/85 27/43/86 31/35/87 29/34/88
f 27/43/89 28/44/90 32/36/91 31/35/92
f 28/44/93 26/41/94 30/33/95 32/36/96
f 33/45/97 34/46/98 36/47/99 35/48/100
f 35/48/101 36/47/102 38/49/103 37/50/104
f 37/50/105 38/49/106 40/51/107 39/52/108
f 39/52/109 40/51/110 34/53/111 33/54/112
f 46/55/113 45/56/114 47/57/115 48/58/116
f 39/59/117 33/45/118 35/48/119 37/60/120
s 3
f 34/46/121 40/61/122 41/62/123 42/63/124
f 40/61/122 38/64/125 43/65/126 41/62/123
f 38/64/125 36/47/127 44/66/128 43/65/126
f 36/47/127 34/46/121 42/63/124 44/66/128
s off
f 42/63/129 41/62/130 45/56/131 46/55/132
f 41/62/133 43/65/134 47/57/135 45/56/136
f 43/65/137 44/66/138 48/58/139 47/57/140
f 44/66/141 42/63/142 46/55/143 48/58/144
f 49/67/145 50/68/146 52/69/147 51/70/148
f 51/70/149 52/69/150 54/71/151 53/72/152
f 53/72/153 54/71/154 56/73/155 55/74/156
f 55/74/157 56/73/158 50/75/159 49/76/160
f 62/77/161 61/78/162 63/79/163 64/80/164
f 55/81/165 49/67/166 51/70/167 53/82/168
s 4
f 50/68/169 56/83/170 57/84/171 58/85/172
f 56/83/170 54/86/173 59/87/174 57/84/171
f 54/86/173 52/69/175 60/88/176 59/87/174
f 52/69/175 50/68/169 58/85/172 60/88/176
s off
f 58/85/177 57/84/178 61/78/179 62/77/180
f 57/84/181 59/87/182 63/79/183 61/78/184
f 59/87/185 60/88/186 64/80/187 63/79/188
f 60/88/189 58/85/190 62/77/191 64/80/192
f 65/89/193 66/90/194 68/91/195 67/92/196
f 67/92/197 68/91/198 70/93/199 69/94/200
f 69/94/201 70/93/202 72/95/203 71/96/204
f 71/96/205 72/95/206 66/97/207 65/98/208
f 78/99/209 77/100/210 79/101/211 80/102/212
f 71/103/213 65/89/214 67/92/215 69/104/216
s 5
f 66/90/217 72/105/218 73/106/219 74/107/220
f 72/105/218 70/108/221 75/109/222 73/106/219
f 70/108/221 68/91/223 76/110/224 75/109/222
f 68/91/223 66/90/217 74/107/220 76/110/224
s off
f 74/107/225 73/106/226 77/100/227 78/99/228
f 73/106/229 75/109/230 79/101/231 77/100/232
f 75/109/233 76/110/234 80/102/235 79/101/236
f 76/110/237 74/107/238 78/99/239 80/102/240
f 81/111/241 82/112/242 84/113/243 83/114/244
f 83/114/245 84/113/246 86/115/247 85/116/248
f 85/116/249 86/115/250 88/117/251 87/118/252
f 87/118/253 88/117/254 82/119/255 81/120/256
f 94/121/257 93/122/258 95/123/259 96/124/260
f 87/125/261 81/111/262 83/114/263 85/126/264
s 6
f 82/112/265 88/127/266 89/128/267 90/129/268
f 88/127/266 86/130/269 91/131/270 89/128/267
f 86/130/269 84/113/271 92/132/272 91/131/270
f 84/113/271 82/112/265 90/129/268 92/132/272
s off
f 90/129/273 89/128/274 93/122/275 94/121/276
f 89/128/277 91/131/278 95/123/279 93/122/280
f 91/131/281 92/132/282 96/124/283 95/123/284
f 92/132/285 90/129/286 94/121/287 96/124/288
