# This file uses centimeters as units for non-parametric coordinates.

mtllib chair.mtl
g default
v -0.500000 0.000000 0.500000
v 0.500000 0.000000 0.500000
v -0.500000 1.000000 0.500000
v 0.500000 1.000000 0.500000
v -0.500000 1.000000 -0.500000
v 0.500000 1.000000 -0.500000
v -0.500000 0.000000 -0.500000
v 0.500000 0.000000 -0.500000
v -1.080000 1.143411 1.080000
v 1.080000 1.143411 1.080000
v 1.080000 1.143411 -1.080000
v -1.080000 1.143411 -1.080000
v -1.080000 1.456864 1.080000
v 1.080000 1.456864 1.080000
v 1.080000 1.456864 -1.080000
v -1.080000 1.456864 -1.080000
v -1.080000 1.143411 1.290994
v 1.080000 1.143411 1.290994
v 1.080000 1.456864 1.290994
v -1.080000 1.456864 1.290994
v -1.080000 3.748670 1.080000
v 1.080000 3.748670 1.080000
v -1.080000 3.748670 1.290994
v 1.080000 3.748670 1.290994
v -0.722929 4.279029 1.080000
v 0.722929 4.279029 1.080000
v -0.722929 4.279029 1.290994
v 0.722929 4.279029 1.290994
v 1.686267 1.848747 0.608650
v 1.686267 1.848747 -0.608650
v 1.686267 2.162201 -0.608650
v 1.686267 2.162201 0.608650
v -1.686267 1.848747 0.608650
v -1.686267 1.848747 -0.608650
v -1.686267 2.162201 0.608650
v -1.686267 2.162201 -0.608650
vt 0.375000 0.000000
vt 0.625000 0.000000
vt 0.375000 0.250000
vt 0.625000 0.250000
vt 0.268519 0.233698
vt 0.731481 0.233698
vt 0.731481 -0.000000
vt 0.268519 -0.000000
vt 0.179766 0.911011
vt 0.820234 0.911011
vt 0.333613 -0.000000
vt 0.755377 -0.000000
vt 0.755377 0.233698
vt 0.333613 0.233698
vt 0.755377 -0.000000
vt 0.333613 -0.000000
vt 0.000000 0.267213
vt 1.000000 0.267213
vt 1.000000 0.340466
vt 0.000000 0.340466
vt 1.000000 0.267213
vt 0.000000 0.267213
vt 0.000000 0.340466
vt 1.000000 0.340466
vt 1.000000 0.340466
vt 0.000000 0.340466
vt 0.000000 0.876056
vt 1.000000 0.876056
vt 1.000000 0.876056
vt 0.000000 0.876056
vt 0.165310 1.000000
vt 0.834690 1.000000
vt 0.834690 1.000000
vt 0.165310 1.000000
vt 0.333613 0.233698
vt 0.755377 0.233698
vt 0.287788 0.432048
vt 0.801202 0.432048
vt 0.801202 0.505302
vt 0.287788 0.505302
vt 0.801202 0.432048
vt 0.287788 0.432048
vt 0.820234 0.000000
vt 0.179766 0.000000
vt 0.351743 0.244623
vt 0.648256 0.244623
vt 0.648256 0.666387
vt 0.351743 0.666387
vt 0.351743 0.666387
vt 0.648256 0.666387
vt 0.820234 0.911011
vt 0.179766 0.911011
vt 0.648256 0.244623
vt 0.820234 0.000000
vt 0.351743 0.244623
vt 0.179766 0.000000
vt 0.820234 1.000000
vt 0.179766 1.000000
vt 0.714358 0.911011
vt 0.285642 0.911011
vt 0.285642 1.000000
vt 0.714358 1.000000
vt 0.287788 0.505302
vt 0.801202 0.505302
vt 0.088989 0.267213
vt 0.088989 0.340466
vt 1.000000 0.198798
vt 1.000000 0.712212
vt 1.000000 0.712212
vt 1.000000 0.198798
vt -0.000000 0.712212
vt -0.000000 0.198798
vt -0.000000 0.198798
vt -0.000000 0.712212
vt 0.000000 0.340466
vt 0.000000 0.267213
vt 0.088989 0.340466
vt 0.088989 0.267213
vt 0.000000 0.267213
vt 0.000000 0.340466
vt 0.000000 0.876056
vt 0.088989 0.876056
vt 0.088989 0.876056
vt 0.000000 0.876056
vt 0.000000 1.000000
vt 0.088989 1.000000
vt 0.088989 1.000000
vt 0.000000 1.000000
vt 1.000000 0.267213
vt 1.000000 0.340466
vt 1.000000 0.340466
vt 1.000000 0.267213
vn 0.000000 0.000000 1.000000
vn 0.000000 0.000000 1.000000
vn 0.000000 0.000000 1.000000
vn 0.000000 0.000000 1.000000
vn 0.000000 1.000000 0.000000
vn 0.000000 1.000000 0.000000
vn 0.000000 1.000000 0.000000
vn 0.000000 1.000000 0.000000
vn 0.000000 0.000000 -1.000000
vn 0.000000 0.000000 -1.000000
vn 0.000000 0.000000 -1.000000
vn 0.000000 0.000000 -1.000000
vn 0.000000 -1.000000 0.000000
vn 0.000000 -1.000000 0.000000
vn 0.000000 -1.000000 0.000000
vn 0.000000 -1.000000 0.000000
vn 1.000000 0.000000 0.000000
vn 1.000000 0.000000 0.000000
vn 1.000000 0.000000 0.000000
vn 1.000000 0.000000 0.000000
vn -1.000000 0.000000 0.000000
vn -1.000000 0.000000 0.000000
vn -1.000000 0.000000 0.000000
vn -1.000000 0.000000 0.000000
vn -0.121783 -0.985057 0.121783
vn 0.121783 -0.985057 0.121783
vn 0.082511 -0.993169 0.082511
vn -0.082511 -0.993169 0.082511
vn 0.121783 -0.985057 -0.121783
vn 0.121783 -0.985057 -0.121783
vn -0.121783 -0.985057 -0.121783
vn -0.121783 -0.985057 -0.121783
vn 0.000000 0.000000 1.000000
vn 0.000000 0.000000 1.000000
vn 0.000000 0.000000 1.000000
vn 0.000000 0.000000 1.000000
vn 1.000000 0.000000 0.000000
vn 1.000000 0.000000 0.000000
vn 1.000000 0.000000 0.000000
vn 1.000000 0.000000 0.000000
vn 0.000000 0.000000 -1.000000
vn 0.000000 0.000000 -1.000000
vn 0.000000 0.000000 -1.000000
vn 0.000000 0.000000 -1.000000
vn -1.000000 0.000000 0.000000
vn -1.000000 0.000000 0.000000
vn -1.000000 0.000000 0.000000
vn -1.000000 0.000000 0.000000
vn 0.000000 -1.000000 0.000000
vn 0.000000 -1.000000 0.000000
vn 1.000000 0.000000 0.000000
vn 1.000000 0.000000 0.000000
vn 1.000000 0.000000 0.000000
vn 1.000000 0.000000 0.000000
vn 0.000000 1.000000 0.000000
vn 0.000000 1.000000 0.000000
vn 0.000000 1.000000 0.000000
vn 0.000000 1.000000 0.000000
vn -1.000000 0.000000 0.000000
vn -1.000000 0.000000 0.000000
vn -1.000000 0.000000 0.000000
vn -1.000000 0.000000 0.000000
vn 0.000000 0.000000 -1.000000
vn 0.000000 0.000000 -1.000000
vn 0.000000 0.000000 -1.000000
vn 0.000000 0.000000 -1.000000
vn -1.000000 0.000000 0.000000
vn -1.000000 0.000000 0.000000
vn 0.000000 0.000000 1.000000
vn 0.000000 0.000000 1.000000
vn 1.000000 0.000000 0.000000
vn 1.000000 0.000000 0.000000
vn 0.000000 0.000000 -1.000000
vn 0.000000 0.000000 -1.000000
vn -0.829517 0.558482 0.000000
vn -0.829517 0.558482 0.000000
vn -0.829517 0.558482 0.000000
vn -0.829517 0.558482 0.000000
vn 0.000000 0.000000 1.000000
vn 0.000000 0.000000 1.000000
vn 0.829517 0.558482 0.000000
vn 0.829517 0.558482 0.000000
vn 0.829517 0.558482 0.000000
vn 0.829517 0.558482 0.000000
vn 0.758357 -0.651840 0.000000
vn 0.758357 -0.651840 0.000000
vn 0.758357 -0.651840 0.000000
vn 0.758357 -0.651840 0.000000
vn 0.613786 0.000000 -0.789473
vn 0.613786 0.000000 -0.789473
vn 0.613786 0.000000 -0.789473
vn 0.613786 0.000000 -0.789473
vn -0.758357 0.651840 0.000000
vn -0.758357 0.651840 0.000000
vn -0.758357 0.651840 0.000000
vn -0.758357 0.651840 0.000000
vn 0.613786 0.000000 0.789473
vn 0.613786 0.000000 0.789473
vn 0.613786 0.000000 0.789473
vn 0.613786 0.000000 0.789473
vn -0.758357 -0.651840 0.000000
vn -0.758357 -0.651840 0.000000
vn -0.758357 -0.651840 0.000000
vn -0.758357 -0.651840 0.000000
vn -0.613786 0.000000 0.789473
vn -0.613786 0.000000 0.789473
vn -0.613786 0.000000 0.789473
vn -0.613786 0.000000 0.789473
vn 0.758357 0.651840 0.000000
vn 0.758357 0.651840 0.000000
vn 0.758357 0.651840 0.000000
vn 0.758357 0.651840 0.000000
vn -0.613786 0.000000 -0.789473
vn -0.613786 0.000000 -0.789473
vn -0.613786 0.000000 -0.789473
vn -0.613786 0.000000 -0.789473
s off
g pCube8
usemtl initialShadingGroup
f 1/1/1 2/2/2 4/4/3 3/3/4
f 13/9/5 14/10/6 15/43/7 16/44/8
f 5/5/9 6/6/10 8/7/11 7/8/12
f 7/45/13 8/46/14 2/47/15 1/48/16
f 2/11/17 8/12/18 6/13/19 4/14/20
f 7/15/21 1/16/22 3/35/23 5/36/24
s 1
f 3/49/25 4/50/26 10/51/27 9/52/28
f 4/50/26 6/53/29 11/54/30 10/51/27
f 6/53/29 5/55/31 12/56/32 11/54/30
f 5/55/31 3/49/25 9/52/28 12/56/32
s 2
f 17/17/33 18/18/34 19/19/35 20/20/36
s off
f 29/37/37 30/38/38 31/39/39 32/40/40
f 11/21/41 12/22/42 16/23/43 15/24/44
f 34/41/45 33/42/46 35/63/47 36/64/48
s 1
f 9/52/28 10/51/27 18/57/49 17/58/50
s 3
f 10/65/51 14/66/52 19/75/53 18/76/54
s off
f 26/59/55 25/60/56 27/61/57 28/62/58
s 4
f 13/77/59 9/78/60 17/79/61 20/80/62
s 5
f 14/25/63 13/26/64 21/27/65 22/28/66
s 4
f 13/77/59 20/80/62 23/81/67 21/82/68
s 2
f 20/20/36 19/19/35 24/29/69 23/30/70
s 3
f 19/75/53 14/66/52 22/83/71 24/84/72
s 5
f 22/28/66 21/27/65 25/31/73 26/32/74
s off
f 21/82/75 23/81/76 27/85/77 25/86/78
s 2
f 23/30/70 24/29/69 28/33/79 27/34/80
s off
f 24/84/81 22/83/82 26/87/83 28/88/84
f 10/51/85 11/54/86 30/67/87 29/68/88
f 11/89/89 15/90/90 31/39/91 30/38/92
f 15/43/93 14/10/94 32/69/95 31/70/96
f 14/66/97 10/65/98 29/37/99 32/40/100
f 12/56/101 9/52/102 33/71/103 34/72/104
f 9/78/105 13/77/106 35/63/107 33/42/108
f 13/9/109 16/44/110 36/73/111 35/74/112
f 16/91/113 12/92/114 34/41/115 36/64/116
